<?xml version="1.0" encoding="UTF-8"?>
<svg width="185px" height="50px" viewBox="0 0 185 50" version="1.1" xmlns="http://www.w3.org/2000/svg" xmlns:xlink="http://www.w3.org/1999/xlink">
    <!-- Generator: Sketch 54.1 (76490) - https://sketchapp.com -->
    <title>internationalshowtimes-logo-light</title>
    <desc>Created with Sketch.</desc>
    <g id="Page-1" stroke="none" stroke-width="1" fill="none" fill-rule="evenodd">
        <g id="internationalshowtimes-logo-light" fill="#000000" fill-rule="nonzero">
            <g id="Group" transform="translate(9.000000, 8.000000)">
                <polygon id="Path" points="1.9 13.4 0.9 13.4 0.9 0.7 1.9 0.7"></polygon>
                <polygon id="Path" points="13.2 13.4 12.2 13.4 6.2 2.6 6.2 13.4 5.2 13.4 5.2 0.7 6.2 0.7 12.2 11.5 12.2 0.7 13.2 0.7"></polygon>
                <polygon id="Path" points="23.4 1.6 19.8 1.6 19.8 13.4 18.8 13.4 18.8 1.6 15.2 1.6 15.2 0.7 23.4 0.7 23.4 1.6"></polygon>
                <polygon id="Path" points="31.6 7.3 26.7 7.3 26.7 12.5 32.3 12.5 32.3 13.4 25.7 13.4 25.7 0.7 32.3 0.7 32.3 1.6 26.7 1.6 26.7 6.4 31.6 6.4"></polygon>
                <path d="M38.7,8.1 L35.8,8.1 L35.8,13.4 L34.8,13.4 L34.8,0.7 L38.3,0.7 C39.5,0.7 40.3,1 41,1.7 C41.6,2.4 41.9,3.3 41.9,4.5 C41.9,5.3 41.7,6 41.3,6.7 C40.9,7.3 40.4,7.7 39.7,8 L42.3,13.4 L42.3,13.5 L41.2,13.5 L38.7,8.1 Z M35.7,7.2 L38.3,7.2 C39,7.2 39.6,6.9 40.1,6.4 C40.5,5.9 40.8,5.2 40.8,4.4 C40.8,3.5 40.6,2.8 40.1,2.3 C39.6,1.8 39,1.6 38.2,1.6 L35.7,1.6 L35.7,7.2 Z" id="Shape"></path>
                <polygon id="Path" points="52.7 13.4 51.7 13.4 45.7 2.6 45.7 13.4 44.7 13.4 44.7 0.7 45.7 0.7 51.7 11.5 51.7 0.7 52.7 0.7"></polygon>
                <path d="M61.8,9.8 L57.1,9.8 L56,13.4 L55,13.4 L59,0.7 L59.9,0.7 L63.9,13.4 L62.9,13.4 L61.8,9.8 Z M57.4,8.9 L61.6,8.9 L59.5,2.1 L57.4,8.9 Z" id="Shape"></path>
                <polygon id="Path" points="72.1 1.6 68.5 1.6 68.5 13.4 67.5 13.4 67.5 1.6 64 1.6 64 0.7 72.2 0.7 72.2 1.6"></polygon>
                <polygon id="Path" points="75.6 13.4 74.6 13.4 74.6 0.7 75.6 0.7"></polygon>
                <path d="M86.8,8.4 C86.8,10 86.4,11.3 85.7,12.2 C85,13.1 84,13.5 82.7,13.5 C81.4,13.5 80.4,13.1 79.7,12.2 C79,11.3 78.6,10 78.6,8.4 L78.6,5.6 C78.6,4 79,2.7 79.7,1.8 C80.4,0.9 81.4,0.4 82.7,0.4 C84,0.4 85,0.9 85.7,1.8 C86.4,2.7 86.8,4 86.8,5.6 L86.8,8.4 Z M85.8,5.6 C85.8,4.2 85.5,3.2 85,2.5 C84.5,1.8 83.7,1.5 82.7,1.5 C81.7,1.5 81,1.8 80.4,2.5 C79.9,3.2 79.6,4.2 79.6,5.6 L79.6,8.4 C79.6,9.8 79.9,10.8 80.4,11.5 C80.9,12.2 81.7,12.6 82.7,12.6 C83.7,12.6 84.5,12.3 85,11.6 C85.5,10.9 85.8,9.9 85.8,8.5 L85.8,5.6 Z" id="Shape"></path>
                <polygon id="Path" points="97.6 13.4 96.6 13.4 90.6 2.6 90.6 13.4 89.6 13.4 89.6 0.7 90.6 0.7 96.6 11.5 96.6 0.7 97.6 0.7"></polygon>
                <path d="M106.7,9.8 L102,9.8 L100.9,13.3 L99.9,13.3 L103.9,0.6 L104.8,0.6 L108.8,13.3 L107.8,13.3 L106.7,9.8 Z M102.3,8.9 L106.5,8.9 L104.4,2.1 L102.3,8.9 Z" id="Shape"></path>
                <polygon id="Path" points="112 12.4 117.2 12.4 117.2 13.3 111 13.3 111 0.7 112 0.7"></polygon>
            </g>
            <g id="Group" transform="translate(8.000000, 24.000000)">
                <path d="M7.8,13.2 C7.8,12.5 7.6,12 7.3,11.7 C7,11.4 6.3,11 5.4,10.6 C3.8,10 2.6,9.2 1.9,8.4 C1.2,7.6 0.8,6.6 0.8,5.4 C0.8,4 1.3,2.9 2.3,2.1 C3.3,1.3 4.5,0.8 6,0.8 C7,0.8 7.9,1 8.7,1.4 C9.5,1.8 10.1,2.4 10.5,3.2 C10.9,4 11.1,4.9 11.1,5.9 L7.8,5.9 C7.8,5.1 7.6,4.5 7.3,4.1 C7,3.7 6.5,3.5 5.9,3.5 C5.3,3.5 4.9,3.7 4.5,4 C4.2,4.3 4,4.8 4,5.4 C4,5.9 4.2,6.3 4.5,6.6 C4.9,7 5.5,7.3 6.4,7.7 C8,8.3 9.2,9 9.9,9.8 C10.6,10.6 11,11.7 11,13 C11,14.4 10.5,15.6 9.6,16.4 C8.7,17.2 7.5,17.6 5.9,17.6 C4.8,17.6 3.9,17.4 3,16.9 C2.1,16.5 1.4,15.8 1,15 C0.5,14.2 0.3,13.2 0.3,12.1 L3.6,12.1 C3.6,13.1 3.8,13.7 4.2,14.2 C4.6,14.6 5.2,14.8 6,14.8 C7.2,15.1 7.8,14.4 7.8,13.2 Z" id="Path"></path>
                <polygon id="Path" points="25 17.5 21.7 17.5 21.7 10.4 16.8 10.4 16.8 17.5 13.5 17.5 13.5 1 16.8 1 16.8 7.7 21.7 7.7 21.7 1 25 1"></polygon>
                <path d="M39.5,10.8 C39.5,13 39,14.7 37.9,16 C36.9,17.2 35.4,17.8 33.6,17.8 C31.8,17.8 30.3,17.2 29.3,16 C28.2,14.8 27.7,13.1 27.7,10.9 L27.7,8 C27.7,5.7 28.2,4 29.3,2.7 C30.3,1.4 31.8,0.8 33.7,0.8 C35.5,0.8 37,1.4 38,2.7 C39.1,4 39.6,5.7 39.6,8 L39.6,10.8 L39.5,10.8 Z M36.2,8 C36.2,6.5 36,5.4 35.6,4.7 C35.2,4 34.5,3.6 33.6,3.6 C32.7,3.6 32.1,3.9 31.7,4.6 C31.3,5.3 31.1,6.4 31,7.8 L31,10.7 C31,12.1 31.2,13.2 31.6,13.9 C32,14.6 32.7,14.9 33.6,14.9 C34.5,14.9 35.1,14.6 35.5,13.9 C35.9,13.2 36.1,12.2 36.1,10.8 L36.1,8 L36.2,8 Z" id="Shape"></path>
                <polygon id="Path" points="52.8 11.4 54.3 1 57.6 1 54.7 17.5 51.4 17.5 49.5 7.8 47.6 17.5 44.3 17.5 41.3 1 44.6 1 46.1 11.4 48 1 50.8 1"></polygon>
                <polygon id="Path" points="70.4 3.8 66.3 3.8 66.3 17.5 63 17.5 63 3.8 59 3.8 59 1 70.4 1"></polygon>
                <polygon id="Path" points="76 17.5 72.7 17.5 72.7 1 76 1"></polygon>
                <polygon id="Path" points="83.3 1 86.4 13 89.5 1 93.8 1 93.8 17.5 90.5 17.5 90.5 13 90.8 6.1 87.5 17.4 85.2 17.4 82 6.2 82.3 13.1 82.3 17.6 79 17.6 79 1"></polygon>
                <polygon id="Path" points="105.2 10.4 100 10.4 100 14.8 106.1 14.8 106.1 17.6 96.7 17.6 96.7 1 106.1 1 106.1 3.8 100 3.8 100 7.7 105.2 7.7"></polygon>
                <path d="M115.2,13.2 C115.2,12.5 115,12 114.7,11.7 C114.4,11.4 113.7,11 112.8,10.6 C111.2,10 110,9.2 109.3,8.4 C108.6,7.6 108.2,6.6 108.2,5.4 C108.2,4 108.7,2.9 109.7,2.1 C110.7,1.3 111.9,0.8 113.4,0.8 C114.4,0.8 115.3,1 116.1,1.4 C116.9,1.8 117.5,2.4 117.9,3.2 C118.3,4 118.5,4.9 118.5,5.9 L115.2,5.9 C115.2,5.1 115,4.5 114.7,4.1 C114.4,3.7 113.9,3.5 113.3,3.5 C112.7,3.5 112.3,3.7 111.9,4 C111.6,4.3 111.4,4.8 111.4,5.4 C111.4,5.9 111.6,6.3 111.9,6.6 C112.3,7 112.9,7.3 113.8,7.7 C115.4,8.3 116.6,9 117.3,9.8 C118,10.6 118.4,11.7 118.4,13 C118.4,14.4 117.9,15.6 117,16.4 C116.1,17.2 114.9,17.6 113.3,17.6 C112.2,17.6 111.3,17.4 110.4,16.9 C109.5,16.5 108.8,15.8 108.4,15 C107.9,14.2 107.7,13.2 107.7,12.1 L111,12.1 C111,13.1 111.2,13.7 111.6,14.2 C112,14.6 112.6,14.8 113.4,14.8 C114.6,15.1 115.2,14.4 115.2,13.2 Z" id="Path"></path>
            </g>
            <g id="Group">
                <path d="M181.8,0 L3.2,0 C1.5,0 0,1.5 0,3.3 L0,46.8 C0,48.5 1.5,50 3.2,50 L181.7,50 C183.5,50 184.9,48.5 184.9,46.7 L184.9,3.3 C185,1.5 183.5,0 181.8,0 Z M138.8,44.6 L140.9,44.6 C141.1,44.6 141.3,44.8 141.3,45 L141.3,47.5 C141.3,47.7 141.1,47.9 140.9,47.9 L138.8,47.9 C138.6,47.9 138.4,47.7 138.4,47.5 L138.4,45 C138.5,44.8 138.6,44.6 138.8,44.6 Z M138.5,5 L138.5,2.5 C138.5,2.3 138.7,2.1 138.9,2.1 L141,2.1 C141.2,2.1 141.4,2.3 141.4,2.5 L141.4,5 C141.4,5.2 141.2,5.4 141,5.4 L138.9,5.4 C138.6,5.4 138.5,5.2 138.5,5 Z M148.2,12 L150.8,12 C153.5,12 154.9,13.5 154.9,16.4 L154.9,37.6 L151.5,37.6 L151.5,28.2 L147.6,28.2 L147.6,37.6 L144.2,37.6 L144.2,16.4 C144.1,13.4 145.5,12 148.2,12 Z M144.2,5 L144.2,2.5 C144.2,2.3 144.4,2.1 144.6,2.1 L146.7,2.1 C146.9,2.1 147.1,2.3 147.1,2.5 L147.1,5 C147.1,5.2 146.9,5.4 146.7,5.4 L144.6,5.4 C144.3,5.4 144.2,5.2 144.2,5 Z M149.8,5 L149.8,2.5 C149.8,2.3 150,2.1 150.2,2.1 L152.3,2.1 C152.5,2.1 152.7,2.3 152.7,2.5 L152.7,5 C152.7,5.2 152.5,5.4 152.3,5.4 L150.2,5.4 C150,5.4 149.8,5.2 149.8,5 Z M152.7,45 L152.7,47.5 C152.7,47.7 152.5,47.9 152.3,47.9 L150.2,47.9 C150,47.9 149.8,47.7 149.8,47.5 L149.8,45 C149.8,44.8 150,44.6 150.2,44.6 L152.3,44.6 C152.5,44.6 152.7,44.8 152.7,45 Z M147,45 L147,47.5 C147,47.7 146.8,47.9 146.6,47.9 L144.5,47.9 C144.3,47.9 144.1,47.7 144.1,47.5 L144.1,45 C144.1,44.8 144.3,44.6 144.5,44.6 L146.6,44.6 C146.8,44.6 147,44.8 147,45 Z M164.4,12 C167.1,12 168.5,13.5 168.5,16.4 L168.5,24 C168.5,26.9 167.1,28.4 164.4,28.4 L161.6,28.4 L161.6,37.7 L158.2,37.7 L158.2,12 L164.4,12 Z M161.2,5 L161.2,2.5 C161.2,2.3 161.4,2.1 161.6,2.1 L163.7,2.1 C163.9,2.1 164.1,2.3 164.1,2.5 L164.1,5 C164.1,5.2 163.9,5.4 163.7,5.4 L161.6,5.4 C161.4,5.4 161.2,5.2 161.2,5 Z M169.4,5.4 L167.3,5.4 C167.1,5.4 166.9,5.2 166.9,5 L166.9,2.5 C166.9,2.3 167.1,2.1 167.3,2.1 L169.4,2.1 C169.6,2.1 169.8,2.3 169.8,2.5 L169.8,5 C169.7,5.2 169.6,5.4 169.4,5.4 Z M169.7,45 L169.7,47.5 C169.7,47.7 169.5,47.9 169.3,47.9 L167.2,47.9 C167,47.9 166.8,47.7 166.8,47.5 L166.8,45 C166.8,44.8 167,44.6 167.2,44.6 L169.3,44.6 C169.6,44.6 169.7,44.8 169.7,45 Z M164,45 L164,47.5 C164,47.7 163.8,47.9 163.6,47.9 L161.5,47.9 C161.3,47.9 161.1,47.7 161.1,47.5 L161.1,45 C161.1,44.8 161.3,44.6 161.5,44.6 L163.6,44.6 C163.9,44.6 164,44.8 164,45 Z M158.4,5 C158.4,5.2 158.2,5.4 158,5.4 L155.9,5.4 C155.7,5.4 155.5,5.2 155.5,5 L155.5,2.5 C155.5,2.3 155.7,2.1 155.9,2.1 L158,2.1 C158.2,2.1 158.4,2.3 158.4,2.5 L158.4,5 Z M155.9,44.6 L158,44.6 C158.2,44.6 158.4,44.8 158.4,45 L158.4,47.5 C158.4,47.7 158.2,47.9 158,47.9 L155.9,47.9 C155.7,47.9 155.5,47.7 155.5,47.5 L155.5,45 C155.5,44.8 155.7,44.6 155.9,44.6 Z M175.1,5.4 L173,5.4 C172.8,5.4 172.6,5.2 172.6,5 L172.6,2.5 C172.6,2.3 172.8,2.1 173,2.1 L175.1,2.1 C175.3,2.1 175.5,2.3 175.5,2.5 L175.5,5 C175.4,5.2 175.3,5.4 175.1,5.4 Z M175.4,45 L175.4,47.5 C175.4,47.7 175.2,47.9 175,47.9 L172.9,47.9 C172.7,47.9 172.5,47.7 172.5,47.5 L172.5,45 C172.5,44.8 172.7,44.6 172.9,44.6 L175,44.6 C175.3,44.6 175.4,44.8 175.4,45 Z M175,12 L175,37.6 L171.6,37.6 L171.6,12 L175,12 Z M178.3,47.5 L178.3,45 C178.3,44.8 178.5,44.6 178.7,44.6 L180.8,44.6 C181,44.6 181.2,44.8 181.2,45 L181.2,47.5 C181.2,47.7 181,47.9 180.8,47.9 L178.7,47.9 C178.4,47.9 178.3,47.7 178.3,47.5 Z M181.1,5 C181.1,5.2 180.9,5.4 180.7,5.4 L178.6,5.4 C178.4,5.4 178.2,5.2 178.2,5 L178.2,2.5 C178.2,2.3 178.4,2.1 178.6,2.1 L180.7,2.1 C180.9,2.1 181.1,2.3 181.1,2.5 L181.1,5 Z M3.2,49.3 C1.8,49.3 0.7,48.2 0.7,46.8 L0.7,3.3 C0.7,1.9 1.8,0.8 3.2,0.8 L134.7,0.8 L134.7,49.4 L3.2,49.4 L3.2,49.3 Z" id="Shape"></path>
                <path d="M165.1,23.7 L165.1,16.6 C165.1,15.6 164.6,15.1 163.6,15.1 L161.6,15.1 L161.6,25.2 L163.8,25.2 C164.7,25.2 165.1,24.7 165.1,23.7 Z" id="Path"></path>
                <path d="M151.4,16.6 C151.4,15.6 150.9,15.1 149.9,15.1 L149,15.1 C148,15.1 147.5,15.6 147.5,16.6 L147.5,25.1 L151.4,25.1 L151.4,16.6 Z" id="Path"></path>
            </g>
        </g>
    </g>
</svg>