<?xml version="1.0" encoding="UTF-8"?>
<svg width="153px" height="72px" viewBox="0 0 153 72" version="1.1" xmlns="http://www.w3.org/2000/svg" xmlns:xlink="http://www.w3.org/1999/xlink">
    <!-- Generator: Sketch 54.1 (76490) - https://sketchapp.com -->
    <title>breitling_web</title>
    <desc>Created with Sketch.</desc>
    <defs>
        <path d="M65.3725509,37.94 C62.4378035,37.6159926 61.2334571,36.0346371 61.105,34.544 C61.019,33.549 61.297,32.668 61.912,31.997 C62.051,31.843 62.221,31.695 62.43,31.543 L62.704,31.342 L62.459,31.108 C61.758,30.447 61.551,29.707 61.499,29.2 C61.408,28.334 61.658,27.544 62.219,26.917 C63.066,25.972 64.555,25.471 66.526,25.471 C68.496,25.471 69.986,25.972 70.831,26.917 C71.395,27.544 71.645,28.334 71.554,29.2 C71.502,29.707 71.294,30.449 70.589,31.113 L70.342,31.346 L70.618,31.547 C70.822,31.695 70.99,31.843 71.131,31.997 C71.743,32.668 72.022,33.548 71.938,34.544 C71.8086509,36.0346371 70.6018208,37.6159926 67.6679675,37.94 L65.3725509,37.94 Z M77.8860662,37.94 C74.952395,37.6159926 73.7464571,36.0346371 73.618,34.544 C73.532,33.549 73.811,32.668 74.425,31.997 C74.564,31.843 74.733,31.695 74.944,31.543 L75.218,31.342 L74.97,31.108 C74.272,30.449 74.063,29.707 74.01,29.2 C73.921,28.333 74.171,27.544 74.733,26.917 C75.58,25.972 77.068,25.471 79.039,25.471 C81.009,25.471 82.497,25.972 83.343,26.917 C83.905,27.542 84.157,28.331 84.068,29.2 C84.015,29.707 83.808,30.447 83.104,31.113 L82.855,31.346 L83.131,31.547 C83.337,31.697 83.505,31.845 83.643,31.998 C84.255,32.666 84.535,33.546 84.451,34.544 C84.3207588,36.0346371 83.1146283,37.6159926 80.1809363,37.94 L77.8860662,37.94 L77.8860662,37.94 Z M0.06,1.206 L9.193,1.206 C12.984,1.206 14.751,2.477 14.751,5.764 C14.751,7.091 14.41,8.118 13.322,8.923 C14.958,9.6 15.654,11.234 15.654,12.524 C15.654,15.092 14.66,17.522 10.251,17.522 L0.06,17.522 L0.06,1.206 Z M153,15.417 C153,15.583 150.666,17.73 145.118,17.73 C139.982,17.73 136.164,14.822 136.164,9.548 C136.164,4.111 139.658,0.926 145.118,0.926 C148.088,0.926 150.296,1.671 151.591,2.415 L150.414,4.958 C149.435,4.359 147.634,3.679 145.118,3.679 C141.658,3.679 139.029,5.941 139.029,9.548 C139.029,13.617 141.951,14.978 145.118,14.978 C145.118,14.978 148.549,15.173 150.136,14.027 L150.136,10.827 L145.367,10.827 L145.367,8.2 L153,8.2 L153,15.417 L153,15.417 Z M128.328,1.212 L131.192,1.212 L131.192,17.527 L129.133,17.527 L119.035,6.239 L119.035,17.535 L116.172,17.535 L116.172,1.227 L118.418,1.227 L118.679,1.516 L128.328,12.33 L128.328,1.212 Z M41.226,1.222 L54.908,1.222 L54.908,3.973 L44.092,3.973 L44.092,8.074 L51.939,8.074 L51.939,10.703 L44.092,10.703 L44.092,14.765 L54.923,14.765 L54.923,17.518 L41.226,17.518 L41.226,1.222 Z M68.348,1.222 L83.311,1.222 L83.311,3.973 L77.261,3.973 L77.261,17.532 L74.397,17.532 L74.397,3.973 L68.348,3.973 L68.348,1.222 Z M60.186,17.518 L60.186,1.225 L63.05,1.225 L63.05,17.518 L60.186,17.518 Z M20.93,1.227 L29.908,1.227 C32.724,1.227 35.751,2.076 35.751,5.986 C35.751,9.147 33.699,10.619 31.264,10.815 L35.61,17.522 L32.231,17.522 L28.042,10.815 L23.795,10.814 L23.795,17.535 L20.93,17.535 L20.93,1.227 Z M88.813,1.227 L91.676,1.227 L91.676,14.786 L101.457,14.786 L101.457,17.539 L88.813,17.539 L88.813,1.227 Z M106.098,17.535 L106.098,1.227 L108.963,1.227 L108.963,17.535 L106.098,17.535 Z M2.804,3.784 L2.804,8.025 L9.726,8.026 C11.689,8.026 11.923,6.632 11.923,5.828 C11.923,4.479 10.815,3.784 9.084,3.784 L2.804,3.784 Z M23.795,3.856 L23.795,8.186 C23.795,8.186 28.655,8.188 29.929,8.188 C31.202,8.188 32.895,7.951 32.895,6.212 C32.895,4.146 31.031,3.856 29.946,3.856 L23.795,3.856 Z M2.804,10.603 L2.804,14.946 L10.251,14.946 C11.168,14.946 12.727,14.622 12.727,12.79 C12.727,10.945 11.404,10.603 9.863,10.603 L2.804,10.603 Z M56.135,37.787 L56.135,25.798 L58.444,25.798 L58.444,37.787 L56.135,37.787 Z M89.549,25.798 L94.987,25.798 L94.987,33.276 L96.35,33.276 L96.35,35.37 L94.987,35.37 L94.987,37.78 L92.901,37.78 L92.901,35.37 L86.115,35.37 L86.13,33.281 L89.549,25.798 Z M66.526,27.565 C65.202,27.565 64.197,27.838 63.766,28.317 C63.604,28.501 63.542,28.708 63.571,28.985 C63.638,29.636 64.579,30.293 66.526,30.293 C68.474,30.293 69.415,29.636 69.484,28.983 C69.511,28.708 69.451,28.503 69.285,28.319 C68.857,27.84 67.85,27.565 66.526,27.565 Z M79.039,27.565 C77.714,27.565 76.709,27.838 76.281,28.317 C76.116,28.501 76.055,28.708 76.082,28.985 C76.153,29.636 77.092,30.293 79.039,30.293 C80.987,30.293 81.928,29.636 81.995,28.983 C82.024,28.708 81.964,28.503 81.798,28.319 C81.367,27.84 80.362,27.565 79.039,27.565 Z M90.879,27.906 L88.425,33.276 L92.901,33.276 L92.901,27.906 L90.879,27.906 Z M66.526,32.594 C65.043,32.594 63.921,32.892 63.446,33.412 C63.226,33.653 63.144,33.947 63.18,34.364 C63.278,35.5 64.968,35.905 66.515,35.905 C68.068,35.905 69.763,35.5 69.861,34.364 C69.897,33.947 69.814,33.653 69.595,33.412 C68.903,32.653 67.071,32.594 66.526,32.594 Z M79.039,32.594 C77.578,32.594 76.426,32.9 75.96,33.412 C75.739,33.655 75.657,33.947 75.695,34.362 C75.791,35.5 77.481,35.905 79.028,35.905 C80.581,35.905 82.276,35.5 82.373,34.364 C82.409,33.945 82.327,33.653 82.106,33.412 C81.414,32.653 79.584,32.594 79.039,32.594 Z" id="path-1"></path>
        <path d="M17.817,14.418 C18.815,15.036 21,14.216 21,14.216 C21,14.216 19.853,13.111 18.59,13.111 C17.802,13.111 16.971,13.894 17.817,14.418 Z M6.069,25.459 C9.183,24.621 13.737,15.494 14.378,7.834 C14.378,7.834 11.413,9.409 7.632,14.654 C3.922,19.802 3.147,26.244 6.069,25.459 Z M24.28,4.647 C27.571,6.071 28.342,11.084 23.086,14.771 C23.608,15.54 24.582,18.455 23.231,21.766 C22.422,23.755 20.901,26.525 17.739,27.451 C13.73,28.627 11.901,25.886 11.901,25.886 C11.792,25.671 13.545,23.354 13.653,23.354 C13.653,23.354 14.933,25.485 18.385,23.967 C22.227,22.276 22.428,16.556 21.764,15.322 C21.108,15.647 19.348,15.902 18.685,15.838 C14.717,15.453 16.235,11.844 19.226,12.114 C21.098,12.285 22.086,13.448 22.086,13.448 C22.086,13.448 25.925,9.514 22.967,6.954 C21.79,5.935 19.787,5.52 17.271,6.293 C17.271,6.293 15.574,20.303 7.224,26.46 C3.841,28.953 -0.178,27.231 1.264,22.166 C2.585,17.513 7.38,10.597 14.496,6.462 L14.494,6.462 C14.674,3.488 14.313,1.561 14.313,1.561 L17.05,0.792 C17.05,0.792 17.559,1.758 17.377,5.077 L17.384,5.086 C19.786,4.204 22.419,3.762 24.28,4.647 Z" id="path-3"></path>
    </defs>
    <g id="breitling_web" stroke="none" stroke-width="1" fill="none" fill-rule="evenodd">
        <g id="Group-3" transform="translate(0.000000, 34.000000)">
            <mask id="mask-2" fill="white">
                <use xlink:href="#path-1"></use>
            </mask>
            <g id="Clip-2"></g>
            <polygon id="Fill-1" fill="#011F3F" mask="url(#mask-2)" points="0.06 37.94 153.06 37.94 153.06 0.86 0.06 0.86"></polygon>
        </g>
        <g id="Group-6" transform="translate(61.000000, 0.000000)">
            <mask id="mask-4" fill="white">
                <use xlink:href="#path-3"></use>
            </mask>
            <g id="Clip-5"></g>
            <polygon id="Fill-4" fill="#FFC429" mask="url(#mask-4)" points="0.86 27.78 26.9 27.78 26.9 0.78 0.86 0.78"></polygon>
        </g>
    </g>
</svg>