<?xml version="1.0" encoding="UTF-8"?>
<svg width="327px" height="377px" viewBox="0 0 327 377" version="1.1" xmlns="http://www.w3.org/2000/svg" xmlns:xlink="http://www.w3.org/1999/xlink">
    <!-- Generator: Sketch 54.1 (76490) - https://sketchapp.com -->
    <title>Balis_Logo_Invertiert</title>
    <desc>Created with Sketch.</desc>
    <g id="Balis_Logo_Invertiert" stroke="none" stroke-width="1" fill="none" fill-rule="evenodd">
        <path d="M72.013,321.161 L72.013,333.052 C70.189,333.381 70.303,331.104 69.486,329.961 C71.959,329.151 69.322,322.67 72.013,321.161" id="Fill-4" fill="#000000"></path>
        <path d="M272.747,146.351 C272.028,151.625 267.609,153.591 260.481,157.872 C253.335,162.165 252.526,163.085 248.447,167.823 C244.392,172.575 241.35,173.769 236.371,174.986 C234.823,175.375 233.537,175.81 232.431,176.24 C230.514,170.058 229.257,165.432 226.5,158.14 C225.887,156.465 224.864,153.518 223.807,149.77 C223.518,148.761 223.238,147.678 222.965,146.541 C227.004,146.416 230.102,145.92 234.694,143.912 C235.709,143.463 237.502,142.631 239.649,141.469 C241.277,140.632 244.16,138.832 244.151,138.822 C244.151,138.822 246.604,137.287 248.116,136.144 C251.041,133.992 253.261,131.971 254.328,130.92 C258.219,127.061 259.739,124.114 261.127,119.77 C257.839,122.957 255.609,124.822 251.931,128.426 C250.925,129.398 248.817,131.29 246.05,133.34 C244.613,134.414 242.302,135.908 242.302,135.908 C242.31,135.913 239.559,137.597 238.004,138.411 C235.947,139.517 234.248,140.322 233.273,140.757 C228.896,142.709 226.368,144.139 222.84,146.078 C221.253,139.355 220.057,130.92 220.149,123.707 C220.14,118.696 220.642,114.388 221.049,111.645 C223.756,111.048 226.269,110.553 229.861,109.309 C230.895,108.934 232.744,108.304 235.006,107.282 C236.676,106.602 239.559,104.917 239.55,104.899 C239.55,104.899 241.921,103.437 243.399,102.386 C246.339,100.309 248.644,98.463 249.768,97.533 C253.89,94.063 255.854,91.495 257.92,87.405 C254.196,90.023 251.628,91.513 247.589,94.845 C246.48,95.742 244.25,97.538 241.4,99.532 C239.98,100.545 237.741,101.961 237.741,101.942 C237.741,101.97 235.124,103.455 233.595,104.103 C231.497,105.047 229.704,105.667 228.707,106.037 C225.697,107.12 223.453,108.11 221.394,109.428 C221.5,108.841 221.561,108.466 221.561,108.476 C221.586,108.489 222.486,102.766 225.127,95.594 C227.786,88.377 232.091,79.687 236.13,73.265 C239.18,68.338 241.963,64.419 243.309,62.383 C245.794,58.695 247.58,55.48 248.62,52.079 C249.662,48.715 249.9,45.111 248.858,41.423 C248.026,45.18 246.49,47.73 244.78,50.298 L238.543,59.14 C237.204,61.11 234.363,65.094 231.182,70.207 C226.953,76.934 222.486,85.966 219.691,93.591 C216.875,101.29 215.918,107.43 215.909,107.402 C215.928,107.393 214.366,114.513 214.366,123.693 C214.215,132.882 216.041,143.894 218.222,151.333 C219.344,155.275 220.436,158.375 221.088,160.125 C224.047,167.704 226.953,171.969 231.455,176.628 C229.637,177.406 228.656,178.058 228.656,178.058 C227.911,178.382 227.399,178.15 226.988,177.66 C223.691,175.259 198.901,156.548 191.419,129.06 C191.438,129.156 191.344,128.781 191.278,128.565 C186.232,109.415 189.617,86.054 214.44,60.995 L214.548,61.25 C215.391,60.051 215.953,60.426 218.231,57.719 C221.204,54.184 220.411,55.355 223.094,50.723 C225.78,46.11 225.021,49.044 228.036,47.577 C231.076,46.11 230.231,45.708 232.406,42.497 C234.562,39.323 234.594,41.313 236.817,40.84 C239.045,40.341 238.997,38.337 241.699,34.321 C244.415,30.296 243.325,32.304 245.283,31.651 C247.216,30.999 246.901,29.662 248.785,26.363 C250.661,23.074 249.569,24.591 252.023,21.556 C254.469,18.54 253.617,17.632 254.122,14.986 C254.617,12.344 254.896,11.904 256.847,12.015 C258.797,12.136 256.352,14.639 256.417,18.206 C256.491,21.759 256.162,19.293 256.236,22.412 C256.294,25.517 256.535,24.203 256.038,27.062 C255.979,27.381 255.947,27.663 255.896,27.922 C256.012,29.209 256.137,30.523 256.352,31.805 C256.468,32.23 256.59,32.711 256.731,33.304 C257.319,35.742 257.641,36.093 257.814,37.236 C258.656,39.513 259.848,41.604 261.465,43.279 C270.559,52.681 294.504,99.12 282.188,125.418 L282.181,125.418 C281.709,126.659 280.909,127.372 279.058,129.314 C275.796,132.729 273.467,141.062 272.747,146.351" id="Fill-5" fill="#000000"></path>
        <path d="M49.05,288.412 C47.812,286.872 46.502,285.715 45.117,284.942 L44.652,284.942 C43.728,284.942 42.107,284.479 39.794,283.555 C39.021,283.401 37.559,283.323 35.398,283.323 C35.086,283.938 34.933,284.942 34.933,286.33 L34.933,288.412 C34.933,290.268 35.009,292.197 35.165,294.2 L35.165,312.477 C34.854,316.492 34.704,320.573 34.704,324.737 L34.704,330.29 C34.704,330.909 34.663,331.566 34.588,332.261 C34.507,332.955 34.431,333.533 34.354,333.996 C34.276,334.458 34.241,334.769 34.241,334.921 C34.241,337.697 34.161,339.932 34.008,341.63 C33.7,345.021 33.547,346.798 33.547,346.951 C33.547,348.187 33.7,349.264 34.008,350.189 C36.013,350.81 39.868,351.115 45.577,351.115 L49.744,351.115 C51.282,350.962 52.438,350.573 53.211,349.958 C54.291,349.033 55.295,347.955 56.221,346.715 C56.529,345.332 56.839,342.865 57.144,339.316 C57.454,335.615 57.611,333.376 57.611,332.607 L57.611,329.832 C57.454,329.059 57.378,327.981 57.378,326.588 C57.378,323.97 57.299,321.656 57.144,319.648 C56.994,317.645 56.917,315.484 56.917,313.171 C56.76,312.402 56.684,310.626 56.684,307.85 C56.684,307.234 56.642,306.309 56.568,305.069 C56.492,303.843 56.372,302.991 56.221,302.529 L55.295,298.596 C55.138,298.133 54.949,297.435 54.718,296.51 C54.486,295.584 54.37,294.974 54.37,294.659 C54.06,293.891 53.442,292.887 52.517,291.651 C50.977,289.958 49.82,288.875 49.05,288.412 M33.547,198.875 C33.235,200.105 33.235,201.34 33.547,202.571 L33.547,230.105 C33.393,230.725 33.316,232.187 33.316,234.501 L33.316,249.773 C33.316,260.415 33.623,265.973 34.241,266.43 C34.394,266.588 34.854,266.662 35.632,266.662 C38.561,266.662 41.952,265.819 45.809,264.121 C51.361,261.494 54.523,258.644 55.295,255.558 C56.372,251.703 56.917,246.613 56.917,240.289 L56.684,232.886 C55.761,214.837 53.75,204.273 50.669,201.183 C48.353,199.332 44.191,198.407 38.174,198.407 C35.398,198.407 33.853,198.564 33.547,198.875 M40.025,183.139 C43.571,183.448 45.809,183.68 46.736,183.832 C48.277,184.143 50.051,184.605 52.059,185.22 C54.678,186.146 56.221,186.84 56.684,187.303 C59.147,188.69 60.538,189.773 60.85,190.542 C61.31,191.619 61.697,192.318 62.005,192.623 C62.312,192.938 62.701,193.627 63.161,194.706 C63.314,195.02 63.545,195.478 63.855,196.098 C64.318,196.556 64.628,196.945 64.786,197.25 C65.088,197.87 65.477,198.796 65.937,200.031 C66.863,203.422 67.48,205.967 67.789,207.665 C68.253,209.516 68.637,212.523 68.945,216.683 C69.412,219.773 70.103,227.949 71.027,241.21 L71.027,244.222 C71.027,251.01 70.18,256.562 68.484,260.878 C66.784,265.2 64.854,267.976 62.701,269.211 C59.459,271.058 57.611,272.062 57.144,272.219 C55.446,272.991 54.602,273.532 54.602,273.838 C54.602,273.99 54.909,274.147 55.527,274.301 L57.378,275.226 C58.303,275.842 58.918,276.304 59.228,276.614 C67.247,283.864 71.337,290.347 71.492,296.052 C71.492,299.285 71.721,303.449 72.186,308.544 C72.646,313.633 72.88,317.876 72.88,321.268 C72.88,321.73 72.841,322.466 72.765,323.465 C72.686,324.474 72.609,325.895 72.533,327.745 C72.454,329.596 72.419,331.372 72.419,333.07 L72.419,339.316 C72.419,340.089 72.378,340.978 72.299,341.978 C72.221,342.981 72.144,343.791 72.073,344.406 C71.992,345.021 71.955,345.562 71.955,346.025 C71.797,346.488 71.413,348.496 70.795,352.04 C70.023,354.507 69.1,356.515 68.019,358.056 C67.247,359.138 65.63,360.447 63.161,361.993 C61.621,362.918 58.146,363.76 52.751,364.533 L49.51,364.533 C48.429,364.686 47.199,364.769 45.809,364.769 C44.728,364.611 42.107,364.533 37.943,364.533 L36.555,364.533 C35.009,364.533 33.466,364.302 31.926,363.844 L30.771,363.844 C29.996,363.844 28.84,363.687 27.299,363.376 C25.45,363.07 23.597,362.604 21.747,361.993 C20.821,361.993 20.356,356.593 20.356,345.794 L20.356,324.048 C20.356,321.888 20.433,319.958 20.588,318.26 L20.588,309.237 C20.588,308.928 20.743,304.921 21.055,297.203 C20.898,295.047 20.821,289.647 20.821,281.01 C20.201,266.819 19.741,250.162 19.433,231.035 L19.433,216.683 C19.433,212.681 19.509,210.057 19.665,208.822 C19.509,208.359 19.433,207.124 19.433,205.116 C19.433,203.58 19.509,202.266 19.665,201.183 L19.665,197.25 C19.665,195.094 19.741,193.169 19.896,191.467 C19.896,188.385 19.972,186.46 20.13,185.683 C20.275,185.683 20.78,185.567 21.629,185.336 C22.478,185.1 23.285,184.836 24.058,184.526 C26.373,183.911 28.377,183.527 30.075,183.37 C32.851,183.06 35.009,182.907 36.555,182.907 L38.406,182.907 C38.866,183.06 39.407,183.139 40.025,183.139" id="Fill-6" fill="#000000"></path>
        <path d="M121.7,234.501 C121.545,233.733 121.316,232.345 121.008,230.336 L120.081,225.709 C119.926,225.4 119.812,224.784 119.736,223.859 C119.655,222.934 119.618,222.24 119.618,221.777 C119.308,219.616 119.157,218.39 119.157,218.076 C117.767,208.207 116.687,203.265 115.914,203.265 C115.604,203.265 115.375,203.191 115.223,203.039 C114.76,203.039 114.45,202.964 114.297,202.807 C113.834,202.807 113.448,202.964 113.14,203.265 C112.828,203.422 112.525,203.964 112.215,204.889 C111.75,206.74 110.44,217.923 108.282,238.438 L107.125,253.938 L106.892,256.945 C106.892,258.953 106.698,261.919 106.313,265.853 C105.93,269.785 105.737,272.371 105.737,273.606 L105.737,275.457 C105.737,276.383 105.583,278.849 105.272,282.86 C105.272,284.711 105.118,287.339 104.812,290.726 L104.812,292.35 C104.812,293.275 104.733,293.816 104.581,293.965 L110.827,293.965 C110.978,293.965 114.602,294.122 121.7,294.427 L128.876,294.659 L127.486,281.01 C127.486,280.236 127.405,279.469 127.252,278.696 C127.252,278.391 127.215,277.965 127.139,277.419 C127.06,276.883 126.944,276.461 126.792,276.151 L126.792,273.14 C126.792,272.682 126.748,272.024 126.678,271.178 C126.598,270.331 126.477,269.752 126.327,269.437 C125.711,267.281 125.323,264.506 125.175,261.109 C125.175,259.568 125.094,258.102 124.943,256.714 C124.786,254.863 124.552,253.476 124.247,252.55 C124.092,251.935 123.86,250.468 123.551,248.154 C123.09,245.068 122.859,243.375 122.859,243.064 L122.394,239.127 C122.086,236.509 121.853,234.968 121.7,234.501 M125.635,185.22 C126.403,186.303 126.944,187.997 127.252,190.314 C128.643,192.781 129.336,194.941 129.336,196.792 C129.336,196.945 129.411,197.218 129.568,197.597 C129.72,197.986 129.834,198.485 129.913,199.105 C129.991,199.721 130.104,200.257 130.262,200.725 C130.412,202.423 130.644,203.964 130.958,205.347 C131.106,206.277 131.381,207.702 131.766,209.632 C132.149,211.561 132.418,212.907 132.575,213.68 L132.575,214.605 C132.575,216.304 132.885,218.927 133.5,222.471 C133.5,222.624 133.577,222.86 133.732,223.165 C133.887,223.475 134.038,223.827 134.195,224.206 C134.347,224.595 134.428,224.941 134.428,225.251 C134.428,225.709 134.504,226.33 134.66,227.103 C134.81,227.875 134.891,228.486 134.891,228.953 L135.351,232.418 L136.971,243.985 L138.592,257.64 C138.592,257.797 138.668,258.144 138.821,258.681 C138.974,259.222 139.129,259.916 139.287,260.767 C139.437,261.613 139.594,262.498 139.749,263.423 C140.209,266.514 140.443,268.827 140.443,270.368 L142.525,283.559 L145.301,304.61 C145.454,306.151 145.611,307.697 145.762,309.237 C145.915,310.778 146.069,312.13 146.227,313.286 C146.379,314.442 146.46,315.252 146.46,315.711 C146.92,318.645 147.305,322.118 147.615,326.13 L148.54,333.765 L148.771,336.771 C149.389,340.932 149.773,343.406 149.928,344.175 L151.318,351.347 C151.318,352.429 151.395,353.433 151.548,354.354 C151.548,354.664 151.584,355.048 151.666,355.511 C151.74,355.974 151.818,356.403 151.897,356.787 C151.971,357.172 152.01,357.439 152.01,357.593 C152.32,359.138 152.471,360.063 152.471,360.369 L152.471,361.525 C152.471,361.84 151.548,362.145 149.695,362.45 L147.615,362.45 C147.154,362.604 146.687,362.683 146.227,362.683 L142.988,362.224 C142.678,362.372 142.063,362.45 141.137,362.45 C139.129,362.45 138.049,362.298 137.896,361.993 L137.436,360.369 C137.279,360.063 137.202,359.643 137.202,359.096 L137.202,358.056 C135.964,346.336 135.12,339.548 134.66,337.697 C134.66,336.619 134.579,335.463 134.428,334.223 C134.114,331.761 133.963,330.447 133.963,330.29 L133.963,329.364 C133.191,325.052 132.809,322.581 132.809,321.961 L132.809,321.036 C132.809,320.268 132.654,319.269 132.344,318.029 L131.418,313.171 L130.493,308.544 L126.792,308.544 C126.176,308.544 125.635,308.47 125.175,308.312 L120.081,308.312 C119.157,308.47 118.232,308.544 117.307,308.544 C115.604,308.391 112.291,308.312 107.356,308.312 L103.422,308.076 L102.73,315.484 C102.107,318.57 101.804,320.652 101.804,321.73 C101.647,322.351 101.571,323.738 101.571,325.895 C101.571,326.357 101.529,326.936 101.455,327.634 C101.376,328.323 101.3,328.901 101.226,329.364 C101.146,329.832 101.108,330.216 101.108,330.521 C100.798,332.071 100.648,333.765 100.648,335.615 C100.648,336.23 100.604,336.883 100.527,337.581 C100.454,338.275 100.377,338.854 100.299,339.316 C100.22,339.779 100.183,340.163 100.183,340.474 C99.723,343.712 99.41,346.798 99.255,349.727 C98.64,356.205 98.022,359.91 97.407,360.831 C97.099,361.604 95.709,362.066 93.24,362.224 C91.082,362.529 88.998,362.683 86.997,362.683 C84.681,362.372 83.371,361.84 83.061,361.067 L83.522,358.749 C83.522,357.519 83.598,356.746 83.753,356.436 C83.753,355.974 83.873,355.164 84.1,354.002 C84.333,352.851 84.452,352.04 84.452,351.577 L85.377,342.787 C85.682,338.155 85.84,335.463 85.84,334.69 C86.147,331.294 86.531,328.828 86.997,327.287 L87.688,320.805 L88.847,309.469 C89.458,304.532 89.925,301.835 90.235,301.367 C90.08,301.066 90.004,300.368 90.004,299.285 C90.004,298.36 90.08,297.592 90.235,296.972 L90.235,295.126 C90.235,294.506 90.272,293.891 90.351,293.275 C90.425,292.655 90.503,292.197 90.582,291.883 C90.659,291.577 90.695,291.346 90.695,291.193 L90.695,289.801 L91.39,286.099 C91.39,284.863 91.429,283.707 91.51,282.629 C91.584,281.556 91.699,280.699 91.855,280.084 L91.855,279.39 L93.472,262.733 L94.631,254.863 C94.938,250.236 95.475,244.453 96.248,237.513 C96.248,235.046 96.481,232.808 96.944,230.799 L98.332,217.608 L99.023,210.441 C99.177,209.826 99.41,208.59 99.723,206.74 L100.648,203.039 C100.491,202.728 100.414,202.034 100.414,200.956 C100.414,199.564 100.648,198.18 101.108,196.792 L101.804,191.929 C102.573,188.385 103.267,185.915 103.884,184.526 C103.884,183.601 105.659,183.139 109.207,183.139 L114.991,183.139 C116.069,183.296 117.307,183.37 118.692,183.37 C123.319,184.452 125.635,185.068 125.635,185.22" id="Fill-7" fill="#000000"></path>
        <path d="M179.082,189.384 L179.082,237.744 C179.082,238.975 178.964,240.521 178.735,242.371 C178.503,244.222 178.385,245.457 178.385,246.072 C178.385,246.535 178.461,247.655 178.619,249.427 C178.77,251.199 178.927,252.703 179.082,253.938 L179.082,271.756 C179.082,272.682 179.116,273.838 179.195,275.226 C179.271,276.614 179.315,277.77 179.315,278.696 C179.315,279.316 179.234,280.084 179.082,281.01 C178.927,281.935 178.851,282.708 178.851,283.323 C178.851,293.659 178.927,302.145 179.082,308.774 L179.315,320.573 L179.315,326.819 C179.315,329.29 179.234,330.909 179.082,331.683 C179.387,333.844 179.542,335 179.542,335.147 C179.542,335.768 179.387,337.466 179.082,340.242 C179.234,340.862 179.315,341.398 179.315,341.861 L179.315,344.638 L189.957,344.638 C191.188,344.638 194.737,344.485 200.599,344.175 C201.832,344.175 202.988,344.143 204.069,344.06 C205.147,343.985 205.957,343.906 206.498,343.828 C207.035,343.749 207.386,343.712 207.539,343.712 L208.464,343.712 C209.08,343.712 209.466,344.406 209.621,345.794 C209.621,346.104 209.739,346.914 209.968,348.224 C210.2,349.537 210.394,350.578 210.546,351.347 C210.854,353.66 211.085,355.131 211.243,355.742 C210.931,359.601 210.468,361.525 209.852,361.525 L209.621,361.525 C209.466,361.683 209.237,361.757 208.929,361.757 C208.464,361.914 208.157,361.993 208.004,361.993 C207.386,362.145 206.613,362.372 205.686,362.687 C204.453,362.372 203.68,362.224 203.377,362.224 C202.912,362.224 202.452,362.293 201.987,362.45 L199.905,362.45 C199.748,362.604 199.442,362.687 198.977,362.687 C198.517,362.687 198.13,362.604 197.82,362.45 L197.129,362.45 C195.278,362.45 194.04,362.372 193.427,362.224 C190.651,362.529 188.8,362.687 187.875,362.687 C185.867,362.687 184.479,362.604 183.708,362.45 C182.32,362.604 179.158,362.687 174.224,362.687 C172.986,362.687 171.908,362.761 170.985,362.918 L167.975,362.918 C165.967,362.918 164.887,362.687 164.736,362.224 L164.273,360.369 L164.273,358.985 C164.116,358.519 164.042,357.75 164.042,356.667 L164.042,356.209 C164.042,355.742 163.961,355.279 163.811,354.816 L163.811,353.429 C163.811,352.656 163.885,352.198 164.042,352.04 C163.885,351.577 163.811,350.505 163.811,348.802 C163.811,346.645 163.734,345.332 163.58,344.869 C163.424,344.406 163.348,343.406 163.348,341.861 C163.348,339.238 163.424,337.545 163.58,336.771 L163.58,327.977 C163.58,299.6 163.656,281.088 163.811,272.45 L163.811,266.897 C163.811,264.274 163.734,262.655 163.58,262.04 C163.885,259.879 164.042,257.486 164.042,254.863 L164.042,250.699 C164.042,248.233 164.116,246.618 164.273,245.837 C164.273,243.527 164.116,241.903 163.811,240.979 C164.116,238.202 164.273,235.426 164.273,232.654 C164.426,231.577 164.507,229.032 164.507,225.021 C164.507,221.472 164.54,217.728 164.619,213.796 C164.697,209.863 164.773,206.855 164.852,204.769 C164.928,202.687 164.968,201.183 164.968,200.257 C164.968,199.18 165.044,198.254 165.199,197.481 C165.199,195.945 165.275,194.937 165.43,194.474 C165.275,194.011 165.199,193.169 165.199,191.929 C165.199,191.467 165.275,191.24 165.43,191.24 C165.275,190.93 165.199,190.463 165.199,189.847 C165.199,189.237 165.118,188.848 164.968,188.69 C165.583,187.765 167.049,187.303 169.363,187.303 C172.292,187.765 174.066,188.075 174.684,188.232 C174.992,187.922 175.38,187.922 175.84,188.232 L176.535,188.464 C177.612,188.464 178.461,188.769 179.082,189.384" id="Fill-8" fill="#000000"></path>
        <path d="M240.857,189.384 C241.167,193.091 241.322,199.105 241.322,207.434 C241.322,208.975 241.398,210.289 241.553,211.367 L241.553,229.643 C241.704,231.035 241.782,232.733 241.782,234.737 L241.782,274.069 C241.782,276.998 241.858,279.469 242.013,281.472 L242.013,288.412 C241.704,293.659 241.553,296.51 241.553,296.977 C241.553,298.98 241.627,300.211 241.782,300.679 L241.782,311.777 C241.782,340.788 241.704,356.824 241.553,359.91 L241.553,361.525 C241.398,361.993 241.322,362.529 241.322,363.149 C241.322,364.074 240.008,364.533 237.386,364.533 L235.073,364.533 C232.45,364.533 230.522,364.38 229.29,364.074 C226.514,362.992 225.124,361.993 225.124,361.067 L225.819,275.688 C225.819,270.289 225.896,266.897 226.053,265.505 L226.053,237.045 C226.053,235.352 226.125,233.89 226.282,232.654 L226.282,228.259 L226.053,210.209 C226.201,205.43 226.282,200.877 226.282,196.556 L226.282,192.161 C226.282,191.24 226.433,190.31 226.745,189.384 C226.433,189.079 226.282,188.769 226.282,188.464 C226.282,188.312 226.201,188.232 226.053,188.232 C226.053,188.075 226.745,187.997 228.13,187.997 L229.752,187.997 C230.213,187.844 231.605,187.765 233.917,187.765 C235.457,187.765 236.54,187.844 237.155,187.997 C239.624,187.997 240.857,188.464 240.857,189.384" id="Fill-9" fill="#000000"></path>
        <path d="M295.696,186.377 C296.77,186.997 297.85,187.997 298.933,189.389 C300.323,190.772 301.167,192.244 301.479,193.78 C302.866,196.713 303.559,198.638 303.559,199.564 C304.332,201.729 304.716,202.964 304.716,203.265 C305.026,204.963 305.257,206.041 305.413,206.508 C305.875,209.284 306.106,212.292 306.106,215.531 L306.567,224.553 L306.567,228.023 C306.567,228.181 306.486,228.412 306.338,228.717 C306.181,229.032 306.106,229.258 306.106,229.411 L306.106,229.874 C306.259,230.031 306.338,230.258 306.338,230.568 C305.563,231.341 304.101,231.729 301.94,231.729 L300.783,231.729 C300.008,231.729 298.007,231.493 294.771,231.031 C291.99,229.494 290.604,228.412 290.604,227.792 L290.604,227.56 C290.292,225.709 290.139,221.624 290.139,215.3 C290.139,210.672 289.832,207.355 289.214,205.347 C288.441,202.423 287.363,200.489 285.978,199.564 C285.052,198.638 283.97,198.18 282.736,198.18 L281.811,198.18 C281.656,198.333 281.349,198.407 280.888,198.407 C278.11,199.18 275.949,200.572 274.406,202.571 L271.627,207.198 C271.012,208.748 270.547,210.672 270.244,212.986 L270.244,214.61 C270.244,218.307 270.936,222.703 272.326,227.792 C273.097,230.258 274.253,233.191 275.794,236.587 C277.49,240.441 280.573,246.383 285.052,254.405 C286.125,256.408 288.83,262.04 293.147,271.288 C293.299,271.603 293.531,272.14 293.841,272.912 C294.148,273.686 294.458,274.301 294.771,274.763 C294.919,275.222 295.115,275.726 295.345,276.267 C295.576,276.809 295.81,277.27 296.043,277.655 C296.27,278.044 296.388,278.312 296.388,278.465 C296.695,279.08 297.621,281.472 299.166,285.637 C299.166,286.719 299.24,287.565 299.397,288.186 C299.397,288.491 299.433,288.875 299.511,289.343 C299.587,289.801 299.703,290.189 299.858,290.494 C300.474,291.114 301.091,292.27 301.708,293.969 C302.017,295.51 302.71,298.438 303.791,302.76 L304.024,303.686 C304.175,304.458 304.371,305.573 304.603,307.04 C304.834,308.507 305.102,310.084 305.413,311.782 C306.181,318.417 306.567,323.502 306.567,327.051 C306.567,333.996 305.642,340.932 303.791,347.876 C303.018,350.967 302.174,353.28 301.246,354.816 C300.783,356.667 299.629,358.365 297.774,359.91 C297.621,360.369 296.233,361.525 293.611,363.376 C291.911,364.148 290.139,364.611 288.289,364.769 L286.669,364.769 C286.206,364.917 285.665,365 285.052,365 C284.277,365 283.583,364.917 282.968,364.769 L281.119,364.769 C269.698,363.224 262.913,360.989 260.759,358.06 C258.286,354.664 256.9,348.034 256.593,338.155 C256.593,332.455 256.669,328.596 256.824,326.588 C256.824,326.287 256.743,325.898 256.593,325.432 C256.438,324.816 256.361,324.432 256.361,324.279 L256.824,321.036 C256.512,320.425 256.361,319.727 256.361,318.954 C256.361,318.029 256.512,317.261 256.824,316.641 C256.669,316.488 256.593,316.025 256.593,315.252 L256.593,314.096 C256.593,313.786 256.512,313.56 256.361,313.401 C256.512,312.938 257.902,312.324 260.525,311.551 C260.831,311.551 261.219,311.478 261.682,311.32 L263.07,311.32 C263.533,311.32 264.84,311.478 267.003,311.782 C269.161,312.092 270.394,312.708 270.705,313.638 C270.705,315.179 270.624,316.566 270.475,317.797 L270.475,322.887 C270.475,326.287 270.624,329.984 270.936,333.996 C272.169,345.716 274.714,351.577 278.57,351.577 C281.038,351.577 283.044,351.43 284.587,351.115 C285.665,350.967 286.669,350.269 287.597,349.033 C288.208,348.265 288.753,346.72 289.214,344.406 C289.984,342.556 290.373,340.474 290.373,338.155 C290.523,337.392 290.604,335.537 290.604,332.607 C290.757,331.067 290.835,329.521 290.835,327.981 C290.835,325.663 290.757,323.659 290.604,321.961 L290.604,315.252 C290.139,304.458 284.664,288.264 274.177,266.666 C273.404,265.126 272.786,263.737 272.326,262.502 C271.549,260.646 270.936,259.185 270.475,258.102 L268.62,254.17 C267.544,251.397 266.924,249.927 266.771,249.773 L263.07,241.903 C259.369,231.419 257.206,223.785 256.593,219.001 C256.28,214.989 256.127,212.754 256.127,212.292 C256.127,205.042 257.902,198.87 261.451,193.78 C264.379,189.616 268.93,186.997 275.102,185.915 C278.957,185.146 282.813,184.758 286.669,184.758 C290.678,184.758 293.688,185.299 295.696,186.377" id="Fill-10" fill="#000000"></path>
        <path d="M205.625,183.125 C208.25,185 210.625,185.625 211.75,183.25 C212.685,181.277 211.125,179.625 211.125,179.625 C211.125,179.625 169.625,155.375 180.125,104.375 C179.875,103.375 178.75,104.25 178.5,105.125 C178.25,106 161.625,148.5 205.625,183.125" id="Fill-11" fill="#000000"></path>
    </g>
</svg>