<?xml version="1.0" encoding="UTF-8"?>
<svg width="100px" height="100px" viewBox="0 0 100 100" version="1.1" xmlns="http://www.w3.org/2000/svg" xmlns:xlink="http://www.w3.org/1999/xlink">
    <title>digitales Umfeld</title>
    <g id="Page-1" stroke="none" stroke-width="1" fill="none" fill-rule="evenodd">
        <g id="digitales-Umfeld" fill="#2E3D40" fill-rule="nonzero">
            <path d="M47.0535454,59.1275355 C47.0535454,60.7558559 48.3710774,62.0738019 49.9998177,62.0738019 C51.6281414,62.0738019 52.94609,60.7562725 52.94609,59.1275355 C52.94609,57.499215 51.628558,56.1810607 49.9998177,56.1810607 C48.371494,56.1812691 47.0535454,57.4987984 47.0535454,59.1275355 Z M55.3857635,53.7416005 C52.4159526,50.7717956 47.5836828,50.7717956 44.613872,53.7416005 C43.9631258,54.3923454 42.9080587,54.3923454 42.2573125,53.7416005 C41.6063579,53.0908555 41.6063579,52.0357905 42.2573125,51.3850456 C46.5265327,47.1158339 53.4733111,47.1158339 57.7425313,51.3850456 C58.7957237,52.4380276 58.0352005,54.2298675 56.5641474,54.2298675 C56.1377461,54.2296592 55.7111366,54.0669729 55.3857635,53.7416005 L55.3857635,53.7416005 Z M61.6515914,47.475785 C55.2116201,41.0358265 44.788432,41.0354099 38.3480441,47.475785 C37.6972978,48.1265299 36.6422307,48.1265299 35.9914845,47.475785 C35.34053,46.8250401 35.34053,45.7699751 35.9914845,45.1192301 C43.7337815,37.3767403 56.2652291,37.3759071 64.0083593,45.1192301 C65.0615516,46.1722121 64.3010284,47.964052 62.8299753,47.964052 C62.4033658,47.9638437 61.9769645,47.8013658 61.6515914,47.475785 L61.6515914,47.475785 Z M49.9998177,25.8366413 C36.6761845,25.8366413 25.8363855,36.6764188 25.8363855,50.0000254 C25.8363855,63.3236321 36.6761845,74.1634095 49.9998177,74.1634095 C59.99348,74.1634095 69.0803887,67.8844709 72.6115826,58.5392821 C72.9369558,57.6785656 73.8982854,57.243833 74.7594201,57.5694138 C75.6203466,57.8947863 76.0546634,58.8563223 75.7292903,59.717247 C71.7610715,70.219362 61.6632565,77.4962901 49.9998177,77.4962901 C34.8383055,77.4962901 22.5034983,65.1615074 22.5034983,50.0000254 C22.5034983,34.8385434 34.8383055,22.5037608 49.9998177,22.5037608 C65.1613299,22.5037608 77.4961371,34.8385434 77.4961371,50.0000254 C77.4961371,50.9203171 76.749987,51.6664657 75.8296935,51.6664657 C74.9094001,51.6664657 74.1632499,50.9203171 74.1632499,50.0000254 C74.1632499,36.6762105 63.3236592,25.8366413 49.9998177,25.8366413 Z M10.9727501,75.5830084 C0.793696004,60.0990702 0.779947844,39.920978 10.9725418,24.4166259 C17.4464669,28.3554658 25.8365938,23.6821423 25.8365938,16.0460964 C25.8365938,14.1900985 25.3174966,12.4530428 24.4167839,10.9724106 C37.9153937,2.09819949 54.9035363,0.992516357 69.209538,7.46392889 C70.0481758,7.84346067 71.0355436,7.47101126 71.4146595,6.63237519 C71.7939838,5.79373912 71.4217419,4.80637325 70.5831042,4.42725809 C55.1285062,-2.5634589 36.7503413,-1.31196225 22.2043717,8.44233764 C20.5210554,7.07648153 18.3780089,6.25575969 16.0462377,6.25575969 C7.80192457,6.25575969 3.28982021,15.8540391 8.44246383,22.2042181 C-2.81102981,38.9865216 -2.81727897,61.0039472 8.44246383,77.7956244 C3.28982021,84.1460118 7.80171626,93.7440829 16.0462377,93.7440829 C21.4446817,93.7440829 25.8365938,89.3521795 25.8365938,83.9537462 C25.8363855,76.3145756 17.4433423,71.6468764 10.9727501,75.5830084 Z M16.0460294,9.58884856 C19.6065944,9.58884856 22.5034983,12.4857467 22.5034983,16.0463047 C22.5034983,19.6068626 19.6065944,22.5037608 16.0460294,22.5037608 C12.4854643,22.5037608 9.58856041,19.6068626 9.58856041,16.0463047 C9.58856041,12.4857467 12.4854643,9.58884856 16.0460294,9.58884856 Z M16.0460294,90.4112023 C12.4854643,90.4112023 9.58856041,87.5143042 9.58856041,83.9537462 C9.58856041,80.3931882 12.4854643,77.4962901 16.0460294,77.4962901 C19.6065944,77.4962901 22.5034983,80.3931882 22.5034983,83.9537462 C22.5034983,87.5143042 19.6068027,90.4112023 16.0460294,90.4112023 Z M91.5573799,22.2042181 C96.7100236,15.8544557 92.1985441,6.25575969 83.9536061,6.25575969 C78.5551621,6.25575969 74.1632499,10.6476631 74.1632499,16.0460964 C74.1632499,23.6854752 82.5567098,28.3531745 89.0270936,24.4166259 C99.2057312,39.8995226 99.2196876,60.0788646 89.0270936,75.5830084 C82.5531686,71.6443767 74.1632499,76.3174919 74.1632499,83.9535379 C74.1632499,85.8095358 74.6823471,87.5463832 75.5830599,89.026807 C61.9092652,98.0157942 44.6403268,99.0475291 30.183512,92.2557434 C29.3502902,91.8645465 28.357923,92.2224146 27.9665171,93.0554264 C27.5751111,93.8884383 27.9331882,94.8810118 28.7662017,95.2724169 C44.4086911,102.62121 63.0913987,101.417207 77.7956804,91.5575049 C84.1460803,96.7101383 93.7439623,92.1978346 93.7439623,83.9537462 C93.7439623,81.6219796 92.9232388,79.4791457 91.5573799,77.7956244 C102.811082,61.0135293 102.817331,38.995687 91.5573799,22.2042181 Z M77.4961371,16.0463047 C77.4961371,12.4857467 80.393041,9.58884856 83.9536061,9.58884856 C87.5141712,9.58884856 90.4110751,12.4857467 90.4110751,16.0463047 C90.4110751,19.6068626 87.5141712,22.5037608 83.9536061,22.5037608 C80.393041,22.5037608 77.4961371,19.6068626 77.4961371,16.0463047 Z M83.9536061,90.4112023 C80.393041,90.4112023 77.4961371,87.5143042 77.4961371,83.9537462 C77.4961371,80.3931882 80.393041,77.4962901 83.9536061,77.4962901 C87.5141712,77.4962901 90.4110751,80.3931882 90.4110751,83.9537462 C90.4110751,87.5143042 87.5143795,90.4112023 83.9536061,90.4112023 Z" id="Shape"></path>
        </g>
    </g>
</svg>