<?xml version="1.0" encoding="UTF-8"?>
<svg width="99px" height="92px" viewBox="0 0 99 92" version="1.1" xmlns="http://www.w3.org/2000/svg" xmlns:xlink="http://www.w3.org/1999/xlink">
    <title>Allhands Meeting</title>
    <g id="Page-1" stroke="none" stroke-width="1" fill="none" fill-rule="evenodd">
        <g id="Allhands-Meeting" fill="#2E3D40" fill-rule="nonzero">
            <path d="M50,42 C49.975,42 49.9458333,42 49.9208333,42 C49.2958333,41.9748 48.7083333,41.664 48.3333333,41.16 L42.7083333,33.6 L31.25,33.6 C27.8041667,33.6 25,30.7734 25,27.3 L25,6.3 C25,2.8266 27.8041667,0 31.25,0 L68.75,0 C72.1958333,0 75,2.8266 75,6.3 L75,27.3 C75,30.7734 72.1958333,33.6 68.75,33.6 L58.2375,33.6 L51.5666667,41.2818 C51.1708333,41.7396 50.6,42 50,42 Z M31.25,4.2 C30.1,4.2 29.1666667,5.1408 29.1666667,6.3 L29.1666667,27.3 C29.1666667,28.4592 30.1,29.4 31.25,29.4 L43.75,29.4 C44.4041667,29.4 45.025,29.7108 45.4166667,30.24 L50.125,36.5652 L55.725,30.114 C56.1208333,29.6604 56.6916667,29.4 57.2916667,29.4 L68.75,29.4 C69.9,29.4 70.8333333,28.4592 70.8333333,27.3 L70.8333333,6.3 C70.8333333,5.1408 69.9,4.2 68.75,4.2 L31.25,4.2 Z" id="Shape"></path>
            <path d="M82.3649609,46 C82.3400083,46 82.310897,46 82.2817857,46 C81.653813,45.9748 81.0715866,45.664 80.6972982,45.1558 L77.411878,40.7038 C76.7256826,39.7714 76.9169856,38.4568 77.8360715,37.7638 C78.7551574,37.0666 80.0568492,37.2598 80.7472033,38.1922 L82.4938824,40.561 L88.0749381,34.1182 C88.474179,33.6604 89.0439291,33.4 89.6427905,33.4 L92.7618603,33.4 C93.909678,33.4 94.8412402,32.4592 94.8412402,31.3 L94.8412402,10.3 C94.8412402,9.1408 93.909678,8.2 92.7618603,8.2 L84.4443408,8.2 C83.2965231,8.2 82.3649609,7.2592 82.3649609,6.1 C82.3649609,4.9408 83.2965231,4 84.4443408,4 L92.7618603,4 C96.2011547,4 99,6.8266 99,10.3 L99,31.3 C99,34.7734 96.2011547,37.6 92.7618603,37.6 L90.586829,37.6 L83.9286546,45.2818 C83.5335724,45.7396 82.9638223,46 82.3649609,46 Z" id="Path"></path>
            <path d="M16.6381843,46 C16.0392097,46 15.4693519,45.7396 15.074195,45.2818 L8.41476171,37.6 L6.23931911,37.6 C2.79937451,37.6 0,34.7734 0,31.3 L0,10.3 C0,6.8266 2.79937451,4 6.23931911,4 L14.5584113,4 C15.706446,4 16.6381843,4.9408 16.6381843,6.1 C16.6381843,7.2592 15.706446,8.2 14.5584113,8.2 L6.23931911,8.2 C5.0912844,8.2 4.15954608,9.1408 4.15954608,10.3 L4.15954608,31.3 C4.15954608,32.4592 5.0912844,33.4 6.23931911,33.4 L9.35897867,33.4 C9.9579533,33.4 10.5278111,33.6604 10.922968,34.1182 L16.5050788,40.561 L18.2520882,38.1922 C18.9384133,37.264 20.2445107,37.0708 21.1637704,37.7638 C22.0830301,38.4568 22.2743692,39.7714 21.5880441,40.7038 L18.3020027,45.1558 C17.9318031,45.664 17.3453071,45.9748 16.7213752,46 C16.6922584,46 16.6631416,46 16.6381843,46 Z" id="Path"></path>
            <path d="M82.5,68 C77.81225,68 74,64.18775 74,59.5 C74,54.81225 77.81225,51 82.5,51 C87.18775,51 91,54.81225 91,59.5 C91,64.18775 87.18775,68 82.5,68 Z M82.5,55.25 C80.15825,55.25 78.25,57.15825 78.25,59.5 C78.25,61.84175 80.15825,63.75 82.5,63.75 C84.84175,63.75 86.75,61.84175 86.75,59.5 C86.75,57.15825 84.84175,55.25 82.5,55.25 Z" id="Shape"></path>
            <path d="M96.9166667,83 C95.7666667,83 94.8333333,82.048 94.8333333,80.875 L94.8333333,76.625 C94.8333333,73.11025 92.0291667,70.25 88.5833333,70.25 L76.0833333,70.25 C74.9333333,70.25 74,69.298 74,68.125 C74,66.952 74.9333333,66 76.0833333,66 L88.5833333,66 C94.325,66 99,70.7685 99,76.625 L99,80.875 C99,82.048 98.0666667,83 96.9166667,83 Z" id="Path"></path>
            <path d="M16.5,68 C11.81225,68 8,64.18775 8,59.5 C8,54.81225 11.81225,51 16.5,51 C21.18775,51 25,54.81225 25,59.5 C25,64.18775 21.18775,68 16.5,68 Z M16.5,55.25 C14.15825,55.25 12.25,57.15825 12.25,59.5 C12.25,61.84175 14.15825,63.75 16.5,63.75 C18.84175,63.75 20.75,61.84175 20.75,59.5 C20.75,57.15825 18.84175,55.25 16.5,55.25 Z" id="Shape"></path>
            <path d="M2.08333333,83 C0.933333333,83 0,82.048 0,80.875 L0,76.625 C0,70.7685 4.675,66 10.4166667,66 L22.9166667,66 C24.0666667,66 25,66.952 25,68.125 C25,69.298 24.0666667,70.25 22.9166667,70.25 L10.4166667,70.25 C6.97083333,70.25 4.16666667,73.11025 4.16666667,76.625 L4.16666667,80.875 C4.16666667,82.048 3.23333333,83 2.08333333,83 Z" id="Path"></path>
            <path d="M50.5,73 C43.6083333,73 38,67.3916667 38,60.5 C38,53.6083333 43.6083333,48 50.5,48 C57.3916667,48 63,53.6083333 63,60.5 C63,67.3916667 57.3916667,73 50.5,73 Z M50.5,52.1666667 C45.9041667,52.1666667 42.1666667,55.9041667 42.1666667,60.5 C42.1666667,65.0958333 45.9041667,68.8333333 50.5,68.8333333 C55.0958333,68.8333333 58.8333333,65.0958333 58.8333333,60.5 C58.8333333,55.9041667 55.0958333,52.1666667 50.5,52.1666667 Z" id="Shape"></path>
            <path d="M69.9545455,92 C68.8254545,92 67.9090909,91.0592 67.9090909,89.9 L67.9090909,81.5 C67.9090909,78.0266 65.1559091,75.2 61.7727273,75.2 L37.2272727,75.2 C33.8440909,75.2 31.0909091,78.0266 31.0909091,81.5 L31.0909091,89.9 C31.0909091,91.0592 30.1745455,92 29.0454545,92 C27.9163636,92 27,91.0592 27,89.9 L27,81.5 C27,75.7124 31.59,71 37.2272727,71 L61.7727273,71 C67.41,71 72,75.7124 72,81.5 L72,89.9 C72,91.0592 71.0836364,92 69.9545455,92 Z" id="Path"></path>
        </g>
    </g>
</svg>