<?xml version="1.0" encoding="UTF-8"?>
<svg width="86px" height="100px" viewBox="0 0 86 100" version="1.1" xmlns="http://www.w3.org/2000/svg" xmlns:xlink="http://www.w3.org/1999/xlink">
    <title>Group</title>
    <g id="Page-1" stroke="none" stroke-width="1" fill="none" fill-rule="evenodd">
        <g id="Group">
            <g id="rental-(1)" transform="translate(0.000000, 2.000000)" fill="#2E3D40" fill-rule="nonzero">
                <path d="M12.3296386,54.0731681 L50.8387825,54.0731681 C51.6270559,54.0731681 52.2657799,53.4304419 52.2657799,52.637657 C52.2657799,51.844872 51.6270559,51.2021458 50.8387825,51.2021458 L12.3296386,51.2021458 C11.5415555,51.2021458 10.9026412,51.844872 10.9026412,52.637657 C10.9026412,53.4304419 11.5415555,54.0731681 12.3296386,54.0731681 Z M12.3296386,42.5890791 L73.6707419,42.5890791 C74.4590153,42.5890791 75.0977394,41.9463529 75.0977394,41.153568 C75.0977394,40.360783 74.4590153,39.7180568 73.6707419,39.7180568 L12.3296386,39.7180568 C11.5415555,39.7180568 10.9026412,40.360783 10.9026412,41.153568 C10.9026412,41.9463529 11.5415555,42.5890791 12.3296386,42.5890791 Z M12.3296386,48.3311236 L73.6707419,48.3311236 C74.4590153,48.3311236 75.0977394,47.6883974 75.0977394,46.8956125 C75.0977394,46.1028275 74.4590153,45.4601013 73.6707419,45.4601013 L12.3296386,45.4601013 C11.5415555,45.4601013 10.9026412,46.1028275 10.9026412,46.8956125 C10.9026412,47.6883974 11.5415555,48.3311236 12.3296386,48.3311236 Z M60.1878991,8.61531573 C59.7582777,8.05182976 59.2032708,7.58213052 58.5510378,7.26191584 L44.4608649,0.341795199 C43.5325555,-0.113931733 42.4676348,-0.113931733 41.5395157,0.341795199 L27.449533,7.26191584 C26.7973,7.58232192 26.2422931,8.05182976 25.8126717,8.61531573 L7.13498732,8.61531573 C3.20066018,8.61531573 0,11.8350715 0,15.7928714 L0,28.5530341 C0,29.345819 2.85399493,29.345819 2.85399493,28.5530341 L2.85399493,15.7928714 C2.85399493,13.4181532 4.77435298,11.486338 7.13498732,11.486338 L24.8442161,11.486338 C24.8533489,13.0969815 25.6673083,14.5661793 27.0267612,15.4204041 C27.8439551,15.9337429 28.7732158,16.1695495 29.6981004,16.1261014 L31.6156045,31.7100102 L30.3752583,31.7100102 C29.5871752,31.7100102 28.9482608,32.3527363 28.9482608,33.1455213 C28.9482608,33.9383062 29.5871752,34.5810324 30.3752583,34.5810324 L55.6253125,34.5810324 C56.4135859,34.5810324 57.05231,33.9383062 57.05231,33.1455213 C57.05231,32.3527363 56.4135859,31.7100102 55.6253125,31.7100102 L54.3849663,31.7100102 L56.3024704,16.1272498 C57.2342046,16.1718463 58.1549033,15.9348913 58.9738096,15.4204041 C60.3330723,14.5663707 61.1470316,13.0971729 61.1561644,11.486338 L78.8655835,11.486338 C81.2260275,11.486338 83.1465759,13.4181532 83.1465759,15.7928714 L83.1465759,59.2377543 L68.0129824,59.2377543 C67.224709,59.2377543 66.5859849,59.8804805 66.5859849,60.6732655 C66.5859849,61.4660504 67.224709,62.1087766 68.0129824,62.1087766 L83.1465759,62.1087766 L83.1465759,67.088469 C83.1465759,69.4631872 81.2260275,71.3950024 78.8655835,71.3950024 L48.0690755,71.3950024 C48.0645091,71.3950024 48.0597525,71.3950024 48.0551861,71.3950024 L37.9459555,71.3950024 C37.9410086,71.3950024 37.9360617,71.3950024 37.9311147,71.3950024 L7.13498732,71.3950024 C4.77435298,71.3950024 2.85399493,69.4631872 2.85399493,67.088469 L2.85399493,62.1087766 L68.0129824,62.1087766 C68.8012558,62.1087766 68.8012558,59.2377543 68.0129824,59.2377543 L2.85399493,59.2377543 L2.85399493,28.5530341 C2.85399493,27.7602491 2.2150806,27.117523 1.42699746,27.117523 C0.638914331,27.117523 0,27.7602491 0,28.5530341 L0,67.088469 C0,71.0462689 3.20066018,74.2660246 7.13498732,74.2660246 L36.2211912,74.2660246 L34.4018646,83.6737903 L33.6889367,83.6737903 C29.9994823,83.6737903 26.6281532,85.8567243 25.1001243,89.2349605 C24.5378873,90.4779217 24.2528684,91.8005059 24.2528684,93.1661555 L24.2528684,95.2246785 C24.2528684,96.7549333 25.4905508,98 27.0117301,98 L58.9882699,98 C60.5094492,98 61.7471316,96.7549333 61.7471316,95.2246785 L61.7471316,93.1661555 C61.7471316,91.8006973 61.4621127,90.4783045 60.9000659,89.2351519 C59.372037,85.8569157 56.000708,83.6739818 52.3110633,83.6739818 L51.5983257,83.6739818 L49.778999,74.266216 L78.8650127,74.266216 C82.7993398,74.266216 86,71.0464603 86,67.0886604 L86,15.7930628 C86,11.8352629 82.7997204,8.61531573 78.8653932,8.61531573 L60.1878991,8.61531573 Z M45.3722406,31.7098187 L40.6281399,31.7098187 L40.6281399,24.0667747 L45.3722406,24.0667747 L45.3722406,31.7098187 Z M51.5090907,31.7100102 L48.2262355,31.7100102 L48.2262355,23.3968695 C48.2262355,22.1831927 47.2446515,21.1957524 46.0381727,21.1957524 L39.9622078,21.1957524 C38.755729,21.1957524 37.774145,22.1831927 37.774145,23.3968695 L37.774145,31.7100102 L34.4912898,31.7100102 L32.4594357,15.1964643 L43.0001903,10.0196284 L53.5411351,15.1964643 L51.5090907,31.7100102 Z M57.4617631,12.9853944 C56.9269245,13.321304 56.2954305,13.3542251 55.7291979,13.0761187 L44.0436108,7.33694522 C43.3807229,7.0113713 42.6202284,7.0113713 41.9567697,7.33694522 L30.2711826,13.0761187 C29.70495,13.3542251 29.0732658,13.321304 28.5386174,12.985203 C28.003969,12.6492934 27.69745,12.0930807 27.69745,11.4589676 C27.69745,10.7762385 28.0914916,10.1413598 28.7014854,9.84181644 L42.7914681,2.9216958 C42.924274,2.85661929 43.0762968,2.85661929 43.2091027,2.9216958 L57.2990854,9.84181644 C57.908889,10.1413598 58.3029305,10.7760471 58.3029305,11.4589676 C58.3029305,12.0930807 57.9964115,12.6494848 57.4617631,12.9853944 Z M39.128651,74.2660246 L46.8719198,74.2660246 L48.6912464,83.6737903 L37.3093244,83.6737903 L39.128651,74.2660246 Z M52.3114439,86.5448126 C54.8849862,86.5448126 57.236678,88.0674114 58.3023597,90.4237551 C58.6946889,91.2909952 58.893327,92.2135503 58.893327,93.1659641 L58.893327,95.1287863 L27.1070536,95.1287863 L27.1070536,93.1659641 C27.1070536,92.2133589 27.3058819,91.2908038 27.6980208,90.4237551 C28.7638928,88.06722 31.1153943,86.5446212 33.6889367,86.5446212 L52.3114439,86.5446212 L52.3114439,86.5448126 Z" id="Shape"></path>
            </g>
            <rect id="Rectangle" fill="#FFFFFF" x="24" y="0" width="38" height="38"></rect>
            <g id="platzhalter" transform="translate(29.000000, 0.000000)" fill="#2E3D40" fill-rule="nonzero">
                <path d="M14,0 C6.2804,0 0,5.99301562 0,13.359375 C0,15.8482266 0.722477778,18.2771094 2.08981111,20.3843281 L13.2030889,37.4737148 C13.4159667,37.8010937 13.7910111,38 14.1943667,38 C14.1974778,38 14.2005111,38 14.2036222,38 C14.6104778,37.996957 14.9863,37.7918906 15.1952889,37.4587969 L26.0253,20.2038281 C27.3171889,18.1411406 28,15.7743789 28,13.359375 C28,5.99301562 21.7196,0 14,0 Z M24.0229111,19.0607109 L14.1767111,34.7481797 L4.07298889,19.2112266 C2.93486667,17.4572891 2.31777778,15.4337891 2.31777778,13.359375 C2.31777778,7.22074219 7.567,2.21171875 14,2.21171875 C20.433,2.21171875 25.6744444,7.22074219 25.6744444,13.359375 C25.6744444,15.3722617 25.0980333,17.3440312 24.0229111,19.0607109 Z" id="Shape"></path>
                <path d="M14,6.90909091 C10.1402,6.90909091 7,10.0085091 7,13.8181818 C7,17.6035192 10.0891,20.7272727 14,20.7272727 C17.9591222,20.7272727 21,17.5619111 21,13.8181818 C21,10.0085091 17.8598,6.90909091 14,6.90909091 Z M14,18.439596 C11.4133444,18.439596 9.31777778,16.3643354 9.31777778,13.8181818 C9.31777778,11.2784 11.4268,9.19676768 14,9.19676768 C16.5732,9.19676768 18.6744444,11.2784 18.6744444,13.8181818 C18.6744444,16.3271798 16.6276444,18.439596 14,18.439596 Z" id="Shape"></path>
            </g>
        </g>
    </g>
</svg>