<?xml version="1.0" encoding="UTF-8"?>
<svg width="100px" height="100px" viewBox="0 0 100 100" version="1.1" xmlns="http://www.w3.org/2000/svg" xmlns:xlink="http://www.w3.org/1999/xlink">
    <title>Teamevent</title>
    <g id="Page-1" stroke="none" stroke-width="1" fill="none" fill-rule="evenodd">
        <g id="Teamevent" transform="translate(0.000250, 0.000976)" fill-rule="nonzero">
            <path d="M12.0888302,77.9761181 L12.5317993,74.7981807 C12.7948855,72.9106761 13.6819958,71.1290311 15.029458,69.7813715 L21.3907924,63.4200279 C21.9628632,62.8479562 21.9628632,61.9204148 21.3907924,61.3485384 C20.8187215,60.7764667 19.8911815,60.7764667 19.319306,61.3485384 L12.9579716,67.7098821 C11.1624621,69.505199 9.98062498,71.8790329 9.63023401,74.3938828 L9.25523365,77.0854909 L0.429053153,85.9112937 C-0.143017718,86.4833654 -0.143017718,87.4109068 0.429053153,87.9827832 C0.714990933,88.2687214 1.0899913,88.4118858 1.46479635,88.4118858 C1.83960141,88.4118858 2.21460177,88.2689167 2.50053955,87.9827832 L11.6735954,78.8097139 C11.8989862,78.5843227 12.0448848,78.2917439 12.0888302,77.9761181 Z" id="Path" fill="#000000"></path>
            <path d="M40.0736231,72.8721994 C38.7939344,73.0604811 37.5091675,73.7038421 36.526354,74.6866569 L32.3812328,78.8317843 C30.2484182,76.8315841 27.3032981,76.0587306 24.4450922,76.7618573 C23.6595446,76.9554125 23.179466,77.7489691 23.3728256,78.5345179 C23.5663804,79.3200667 24.3605218,79.7997554 25.1454835,79.6067861 C27.0917745,79.1270975 29.099003,79.6862785 30.5142388,81.1015164 L31.3486146,81.9358934 C31.9206855,82.5079651 32.8482254,82.5079651 33.420101,81.9358934 L38.5978404,76.7583417 C39.8870995,75.469276 41.9845625,75.469276 43.2736262,76.7583417 C43.3130794,76.7977949 43.3162044,76.8604904 43.2818294,76.9036545 L34.7058444,86.2380523 C33.9208827,87.0923513 32.9265458,87.7445013 31.8302557,88.1243851 L27.7452908,89.539037 C26.8872821,89.836108 25.9622812,89.7866938 25.140796,89.3993882 L21.5171597,87.6907903 L17.6782887,83.8517184 C17.1062179,83.2796467 16.1786779,83.2796467 15.6068024,83.8517184 C15.0347315,84.4237901 15.0347315,85.3511361 15.6068024,85.9232078 L19.0722354,89.3888413 L11.4894155,96.9716723 C10.9173446,97.543744 10.9173446,98.4712853 11.4894155,99.0431617 C11.7753533,99.3290999 12.1503537,99.4722643 12.5251587,99.4722643 C12.8999638,99.4722643 13.2749641,99.3292952 13.5609019,99.0431617 L21.6239957,90.9800561 L23.8917714,92.0491993 C24.7554441,92.4564269 25.6810309,92.6617008 26.6107193,92.6615055 C27.3146263,92.6615055 28.0210723,92.5439271 28.7042761,92.3072078 L32.789241,90.8925559 C34.3425628,90.354664 35.7513533,89.4304429 36.8634637,88.2200884 L45.4539018,78.8700656 C45.4599565,78.863425 45.4660112,78.8567843 45.4718706,78.8499484 C46.5349576,77.6493595 46.4794887,75.8204488 45.3455033,74.6866569 C44.8296825,74.1706401 44.2445256,73.7653656 43.6205016,73.4684899 L47.0218721,70.0671144 L47.4185522,70.4639904 C48.1300763,71.1757109 49.0648428,71.5313758 49.9996094,71.5313758 C50.6119147,71.5313758 51.2228528,71.3757114 51.7722674,71.0704372 C51.8648456,71.1843046 51.961916,71.2946565 52.0660176,71.3987583 L67.7095876,87.0423512 C69.5049019,88.8378634 71.8787323,90.0197022 74.3935785,90.3700937 L77.0851827,90.7450946 L85.9109726,99.5708974 C86.1969103,99.8568356 86.5719107,100 86.9467158,100 C87.3215208,100 87.6965212,99.8570309 87.982459,99.5708974 C88.5545298,98.9988257 88.5545298,98.0712844 87.982459,97.499408 L78.8094031,88.3263387 C78.5840123,88.1009475 78.2914339,87.955244 77.9758086,87.9112986 L74.7978758,87.4683288 C72.9103739,87.2052422 71.1287316,86.3181307 69.781074,84.9706664 L54.137504,69.3270736 C54.065629,69.2551984 54.0044961,69.1762919 53.9511757,69.0932839 L55.8906308,67.1536307 L64.9627099,76.2257232 C65.2486477,76.5116614 65.6236481,76.6548258 65.9984531,76.6548258 C66.3732582,76.6548258 66.7482585,76.5118567 67.0341963,76.2257232 C67.6062672,75.6536515 67.6062672,74.7261102 67.0341963,74.1542338 L57.9621172,65.0821413 L59.9254003,63.1188553 L69.2756048,72.4690734 C69.5615425,72.7550116 69.9365429,72.898176 70.311348,72.898176 C70.686153,72.898176 71.0611534,72.7552069 71.3470912,72.4690734 C71.919162,71.8970017 71.919162,70.9694604 71.3470912,70.397584 L61.9968867,61.0473658 L63.9601699,59.0840798 L73.225218,68.3491415 C73.5111558,68.6350797 73.8861561,68.7782441 74.2609612,68.7782441 C74.6357662,68.7782441 75.0107666,68.635275 75.2967044,68.3491415 C75.8687753,67.7770698 75.8687753,66.8495284 75.2967044,66.277652 L66.0316563,57.0125904 L67.138298,55.9057517 C67.1386886,55.9053611 67.1390792,55.9049705 67.1396652,55.9045798 C67.4277514,55.615712 67.6974782,55.3153206 67.9523613,55.0067261 L72.931663,59.9860351 C73.120921,61.2631867 73.7056872,62.4926819 74.6867429,63.4737389 L78.8318641,67.6188663 C76.8316668,69.7518793 76.0580333,72.6970037 76.7619402,75.5552138 C76.9263935,76.2231841 77.5246363,76.6700602 78.1830353,76.6700602 C78.2990511,76.6700602 78.4168246,76.656193 78.5344029,76.6270914 C79.3199505,76.4337315 79.7998338,75.6399796 79.6064742,74.8544308 C79.1271769,72.908137 79.6859665,70.9011008 81.1013976,69.4856677 L81.9357734,68.6512907 C82.5078442,68.0792189 82.5078442,67.1516776 81.9357734,66.5798012 L76.7582293,61.4020542 C75.4691655,60.1129886 75.4691655,58.0153272 76.7582293,56.7262615 C76.7978777,56.686613 76.8605731,56.6838786 76.9037372,56.7180584 L79.4584272,59.0651344 C80.0539356,59.6124014 80.9806943,59.5731435 81.5281558,58.9774389 C82.0754219,58.3817343 82.0363594,57.4549743 81.4404604,56.9077073 L78.8701454,54.5461781 C78.8635047,54.5401234 78.8568641,54.5340687 78.8500282,54.5282093 C77.6494411,53.4653161 75.8207283,53.520785 74.6867429,54.6545768 C74.170922,55.1705937 73.7656482,55.755556 73.4685776,56.379581 L69.6447457,52.5557435 C69.6220895,52.5330872 69.5976754,52.5121888 69.5744332,52.4901184 C70.2037307,51.2047637 70.6058795,49.836401 70.7808797,48.4436241 C71.0011924,48.2926472 71.2099817,48.1231155 71.398849,47.9340526 L87.042419,32.2904597 C88.8379286,30.4951428 90.0197656,28.1213089 90.3701566,25.606459 L90.745157,22.9148509 L99.5709468,14.0890481 C100.143018,13.5169764 100.143018,12.589435 99.5709468,12.0175586 C98.998876,11.4454869 98.071336,11.4454869 97.4994604,12.0175586 L88.3264046,21.1906279 C88.1010138,21.4160191 87.9553105,21.7085979 87.9113651,22.0242237 L87.468396,25.2021611 C87.2053098,27.0896657 86.3181995,28.8713107 84.9707373,30.2189703 L70.6742389,44.5154895 C70.4883013,43.490487 70.1779494,42.4842346 69.7424021,41.5207557 L76.2258069,35.0373414 C76.7978777,34.4652697 76.7978777,33.5377284 76.2258069,32.965852 C75.653736,32.3937803 74.726196,32.3937803 74.1543205,32.965852 L68.1812678,38.9389134 C67.8580253,38.5240687 67.5095874,38.1227005 67.128337,37.7414496 C66.8457196,37.4588317 66.5527505,37.1930107 66.2511877,36.9424242 L72.4689673,30.7246356 C73.0410381,30.1525638 73.0410381,29.2250225 72.4689673,28.6531461 C71.8968964,28.0810744 70.9693564,28.0810744 70.3974809,28.6531461 L63.7402478,35.3103889 C62.8080203,34.8504269 61.8308709,34.5121448 60.8324325,34.2918318 L68.3490414,26.7752119 C68.9211122,26.2031401 68.9211122,25.2755988 68.3490414,24.7037224 C67.7769705,24.1316507 66.8494305,24.1316507 66.277555,24.7037224 C66.277555,24.7037224 56.9742256,34.0107764 56.9560615,34.0310889 C56.1867248,34.0957375 55.4220756,34.2293316 54.6724655,34.4314805 C54.6576217,34.4178086 54.6418014,34.404918 54.6275436,34.3906601 C54.0863321,33.8494479 54.0863321,32.9687817 54.6275436,32.4273741 L59.9861426,27.0687673 C61.2634876,26.879509 62.4927856,26.2949372 63.4738413,25.3136848 L67.6189625,21.1685575 C69.7519724,23.1687577 72.6970925,23.9421971 75.5551031,23.2384845 C76.3406507,23.0449293 76.8207293,22.2513727 76.6273698,21.4658239 C76.4340102,20.6802751 75.6400641,20.2007817 74.8547118,20.3935556 C72.9078349,20.873049 70.9011923,20.313868 69.4859565,18.8988254 L68.6515807,18.0644484 C68.0795098,17.4921814 67.1519699,17.4923767 66.5800943,18.0644484 L61.4023549,23.2420001 C60.1130958,24.5310657 58.0156328,24.5310657 56.7265691,23.2420001 C56.6871159,23.2025469 56.6839909,23.1398514 56.7183659,23.0966872 L65.2943509,13.7622895 C66.0793126,12.9079905 67.0736495,12.2558405 68.1699396,11.8759567 L72.2549045,10.4613048 C73.1131085,10.1642338 74.0381094,10.213648 74.8593993,10.6009536 L78.4830356,12.3095515 L82.3221019,16.1486234 C82.8941727,16.7208904 83.8217127,16.7206951 84.3935883,16.1486234 C84.9656591,15.5765517 84.9656591,14.6492057 84.3935883,14.077134 L80.9277646,10.6113052 L88.5105845,3.02847419 C89.0826554,2.45640248 89.0826554,1.52886115 88.5105845,0.956984758 C87.9387089,0.384717736 87.011169,0.384913049 86.4390981,0.956984758 L78.3760043,9.02009038 L76.1084239,7.95094715 C74.590649,7.2353204 72.8814677,7.1435233 71.2959192,7.6929387 L67.2109543,9.10739528 C65.6576325,9.64528722 64.248842,10.5695082 63.1367316,11.7798627 L54.5462935,21.1298856 C54.5402388,21.1365262 54.5341841,21.1431669 54.5283247,21.1500028 C53.4652378,22.3505917 53.5207066,24.1795024 54.654692,25.3132942 C55.1707082,25.8293111 55.7556697,26.2343902 56.3796937,26.5314613 L52.5558619,30.3552987 C51.1476574,31.7635053 50.9220712,33.9082371 51.8695331,35.5580458 C51.2193371,35.9135154 50.5925787,36.326993 49.9996094,36.803166 C49.1802726,36.1451566 48.2976546,35.6045303 47.3749974,35.1769902 C47.5708961,35.0381227 47.7587869,34.8830441 47.9339824,34.7076531 C49.6175778,33.0240552 49.6175778,30.2847907 47.9339824,28.6011929 L44.7732371,25.440443 C44.2011662,24.8683713 43.2736262,24.8683713 42.7017507,25.440443 C42.1296798,26.0125147 42.1296798,26.940056 42.7017507,27.5119324 L45.862496,30.6726823 C46.4037074,31.2138946 46.4037074,32.0945608 45.862496,32.6359683 C45.6003863,32.8980784 45.2517532,33.04261 44.8808544,33.04261 C44.5099556,33.04261 44.1613224,32.8982737 43.8992128,32.6359683 C43.8535096,32.5902651 35.0370948,23.7738373 35.0370948,23.7738373 C34.4650239,23.2017656 33.5374839,23.2017656 32.9656084,23.7738373 C32.3935375,24.345909 32.3935375,25.2734504 32.9656084,25.8453268 L41.1333898,34.0131201 C40.0206934,34.0840188 38.9158095,34.2969099 37.8486209,34.6549186 L30.7243952,27.5306824 C30.1523244,26.9586107 29.2247844,26.9586107 28.6529088,27.5306824 C28.080838,28.1027542 28.080838,29.0302955 28.6529088,29.6021719 L35.0466651,35.9959375 C34.27518,36.4881262 33.5437339,37.0678151 32.8706864,37.7408636 C32.8697098,37.7418402 26.774782,31.6504191 26.774782,31.6504191 C26.2027111,31.0783474 25.2751712,31.0783474 24.7032956,31.6504191 C24.1312247,32.2224908 24.1312247,33.1500321 24.7032956,33.7219085 L31.0382627,40.0568849 C30.5120903,40.9057151 30.0933399,41.802397 29.7833787,42.7285711 C29.7833787,42.7285711 27.1271261,40.0814943 27.0728292,40.0406739 C26.8878681,38.7535614 26.301344,37.5137146 25.3132571,36.5258216 L21.1681359,32.3806943 C23.1683332,30.2478766 23.9417714,27.3027522 23.2380598,24.4445421 C23.0445049,23.6589933 22.2503635,23.1793046 21.4654018,23.3722739 C20.6798542,23.565829 20.1997756,24.3593856 20.3931351,25.1449344 C20.8724325,27.0914236 20.3136429,29.0984597 18.8984071,30.5136975 L18.0640313,31.3480746 C17.4919604,31.9201463 17.4919604,32.8476876 18.0640313,33.419564 L23.2415754,38.597311 C24.5306392,39.8863767 24.5306392,41.984038 23.2415754,43.2731037 C23.201927,43.3123616 23.1394269,43.3156819 23.0962628,43.2813068 L13.7618787,34.7053093 C12.907581,33.9203465 12.2554319,32.9260081 11.8755487,31.8297164 L10.4608989,27.7447455 C10.1638283,26.8865403 10.2132424,25.9617333 10.6005475,25.1402469 L12.3091429,21.5166053 L16.1484044,17.6783146 C16.7204753,17.1062429 16.7204753,16.1787016 16.1484044,15.6068252 C15.5763336,15.0347535 14.6487936,15.0347535 14.076918,15.6068252 L10.6112897,19.0722634 L3.02846975,11.4894323 C2.45639888,10.9171653 1.52885891,10.9173606 0.956983356,11.4894323 C0.384912485,12.0615041 0.384912485,12.9890454 0.956983356,13.5609218 L9.02007717,21.6240274 L7.9509355,23.8916111 C7.2353098,25.4093882 7.14370815,27.1183768 7.69292743,28.7041228 L9.10757725,32.7890937 C9.6454684,34.3424178 10.5696881,35.7512103 11.7800408,36.8633224 C11.7800408,36.8633224 21.1433312,45.4658825 21.1501671,45.4717419 C21.7257536,45.9813134 22.4454809,46.2338531 23.163841,46.2338531 C23.9443105,46.2338531 24.7230222,45.9358055 25.3134525,45.3453744 C25.8292733,44.8293575 26.2345471,44.2443951 26.5316177,43.6203702 L29.1290812,46.2178374 C29.0499795,47.8965525 29.2993938,49.5875722 29.8732225,51.1871855 C29.405058,51.3991001 28.9751748,51.6924602 28.6015416,52.0660939 L24.207592,56.46005 C23.6355211,57.0321217 23.6355211,57.959663 24.207592,58.5315394 C24.4935298,58.8174776 24.8685301,58.960642 25.2433352,58.960642 C25.6181403,58.960642 25.9931406,58.8176729 26.2790784,58.5315394 L30.673028,54.1375833 C30.8370907,53.9735204 31.0130674,53.875864 31.1742004,53.8168794 C31.6495915,54.5506703 32.2062326,55.2465704 32.8464676,55.8905173 L23.7741931,64.9628051 C23.2021223,65.5348768 23.2021223,66.4624181 23.7741931,67.0342945 C24.0601309,67.3202327 24.4351313,67.4633971 24.8099363,67.4633971 C25.1847414,67.4633971 25.5597418,67.320428 25.8456795,67.0342945 L34.9175634,57.9623974 L36.8808466,59.9256834 L27.5310327,69.2755109 C26.9589619,69.8475826 26.9589619,70.775124 27.5310327,71.3470004 C27.8169705,71.6329386 28.1919709,71.776103 28.5667759,71.776103 C28.941581,71.776103 29.3165814,71.6331339 29.6025191,71.3470004 L38.952333,61.9971728 L40.9156161,63.9604589 L31.651154,73.2249346 C31.0790831,73.7970063 31.0790831,74.7245477 31.651154,75.2964241 C31.9370917,75.5823623 32.3120921,75.7255267 32.6868972,75.7255267 C33.0617022,75.7255267 33.4367026,75.5825576 33.7226404,75.2964241 L42.9871025,66.0319483 L44.9503857,67.9952344 L40.0736231,72.8721994 Z M49.4900386,68.392501 L34.933579,53.8354342 C31.0747862,49.9670653 31.0786925,43.6766203 34.9421728,39.812939 C36.8755731,37.8795358 39.4165912,36.9125413 41.9578046,36.9125413 C44.4947212,36.9125413 47.0322237,37.8764108 48.9648427,39.8043452 C49.5367183,40.3748544 50.4621098,40.3748544 51.0339854,39.8043452 C54.9025439,35.9453514 61.1929797,35.9492577 65.0566553,39.812939 C68.919745,43.6760344 68.9240419,49.9655028 65.0666163,53.8342623 L50.5087896,68.3926963 C50.2283205,68.673361 49.7712888,68.673361 49.4900386,68.392501 L49.4900386,68.392501 Z" id="Shape" fill="#2E3D40"></path>
            <path d="M21.1904016,11.6738078 C21.4157924,11.899199 21.7083708,12.0449025 22.0239961,12.0888479 L25.2019289,12.5318177 C27.0894308,12.7949043 28.8710731,13.6820158 30.2187307,15.0294801 L37.8132693,22.6240298 C38.0992071,22.909968 38.4742075,23.0531325 38.8490125,23.0531325 C39.2238176,23.0531325 39.598818,22.9101634 39.8847557,22.6240298 C40.4568266,22.0519581 40.4568266,21.1244168 39.8847557,20.5525404 L32.2902171,12.9579906 C30.4949028,11.1624784 28.1210724,9.9806396 25.6062262,9.63024812 L22.914622,9.25524721 L14.0888321,0.429053782 C13.5167612,-0.143017927 12.5892213,-0.143017927 12.0173457,0.429053782 C11.4452748,1.00112549 11.4452748,1.92866682 12.0173457,2.50054321 L21.1904016,11.6738078 Z" id="Path" fill="#000000"></path>
            <path d="M90.9799228,78.3761191 L92.0490645,76.1085354 C92.7646902,74.5907583 92.8562919,72.8817697 92.3070726,71.2960237 L90.8924227,67.2110528 C90.3545316,65.6577287 89.4303119,64.2489362 88.2199592,63.1368241 L86.530895,61.5848672 C85.9351913,61.0374049 85.0084326,61.0766628 84.4611665,61.6725627 C83.9139003,62.2682673 83.9529628,63.1950273 84.5488619,63.7422943 L86.237926,65.2942512 C87.0922237,66.0792141 87.7443728,67.0735524 88.124256,68.1698442 L89.5389058,72.2548151 C89.8359764,73.1130203 89.7865623,74.0378272 89.3992572,74.8593136 L87.6906618,78.4829553 L83.8515956,82.3220272 C83.2795247,82.8940989 83.2795247,83.8214449 83.8515956,84.3935166 C84.1375333,84.6796501 84.5125337,84.8226192 84.8873388,84.8226192 C85.2621438,84.8226192 85.6371442,84.6796501 85.923082,84.3935166 L89.3887103,80.9280784 L96.9715302,88.5109095 C97.257468,88.797043 97.6324684,88.9400121 98.0072734,88.9400121 C98.3820785,88.9400121 98.7570789,88.797043 99.0430166,88.5109095 C99.6150875,87.9388377 99.6150875,87.0112964 99.0430166,86.43942 L90.9799228,78.3761191 Z" id="Path" fill="#000000"></path>
        </g>
    </g>
</svg>