<?xml version="1.0" encoding="UTF-8"?>
<svg width="100px" height="100px" viewBox="0 0 100 100" version="1.1" xmlns="http://www.w3.org/2000/svg" xmlns:xlink="http://www.w3.org/1999/xlink">
    <title>digitalprämie-basic_icon</title>
    <g id="Page-1" stroke="none" stroke-width="1" fill="none" fill-rule="evenodd">
        <g id="digitalprämie-basic_icon" fill="#2E3D40" fill-rule="nonzero">
            <g id="financial-profit-(1)">
                <path d="M49.9999896,35.483871 C52.6679163,35.483871 54.8390343,33.3129032 54.8390343,30.6451613 C54.8390343,27.9774194 52.6679163,25.8064516 49.9999896,25.8064516 C47.332063,25.8064516 45.1609449,27.9774194 45.1609449,30.6451613 C45.1609449,33.3129032 47.332063,35.483871 49.9999896,35.483871 Z M49.9999896,29.0322581 C50.8887608,29.0322581 51.6130045,29.7564516 51.6130045,30.6451613 C51.6130045,31.533871 50.8887608,32.2580645 49.9999896,32.2580645 C49.1112184,32.2580645 48.3869747,31.533871 48.3869747,30.6451613 C48.3869747,29.7564516 49.1112184,29.0322581 49.9999896,29.0322581 Z" id="Shape"></path>
                <path d="M49.9999896,41.9354839 C56.2262272,41.9354839 61.291094,36.8709677 61.291094,30.6451613 C61.291094,24.4193548 56.2262272,19.3548387 49.9999896,19.3548387 C43.7737521,19.3548387 38.7088853,24.4193548 38.7088853,30.6451613 C38.7088853,36.8709677 43.7737521,41.9354839 49.9999896,41.9354839 Z M49.9999896,22.5806452 C54.4470717,22.5806452 58.0650641,26.1983871 58.0650641,30.6451613 C58.0650641,35.0919355 54.4470717,38.7096774 49.9999896,38.7096774 C45.5529075,38.7096774 41.9349151,35.0919355 41.9349151,30.6451613 C41.9349151,26.1983871 45.5529075,22.5806452 49.9999896,22.5806452 Z" id="Shape"></path>
                <path d="M99.7518214,83.0725806 C98.8614371,78.8032258 95.3934551,75.3354839 91.1238046,74.4451613 C90.1979341,74.2516129 89.2672245,74.183871 88.349419,74.2129032 C87.3445107,69.7403226 84.3055906,66.1096774 80.2924095,64.2532258 C80.5117796,63.8080645 80.6472728,63.3145161 80.6472728,62.7854839 L80.6472728,50.9064516 C80.6472728,48.8016129 79.6181693,46.8258065 77.8954694,45.6209677 L67.6963761,38.4822581 C67.2350539,25.9532258 63.3380099,13.8741935 56.3568814,3.40322581 C54.9374282,1.27258065 52.5614573,1.14603667e-14 49.9999896,1.14603667e-14 C47.4385219,1.14603667e-14 45.062551,1.27258065 43.6430979,3.4016129 C36.6619694,13.8725806 32.7649253,25.9516129 32.3036031,38.4806452 L22.1061228,45.6193548 C20.3818099,46.8258065 19.3527064,48.8016129 19.3527064,50.9064516 L19.3527064,62.7854839 C19.3527064,63.3145161 19.4865866,63.8080645 19.7075697,64.2532258 C15.6943886,66.1096774 12.6554685,69.7419355 11.6505602,74.2129032 C10.7327547,74.1822581 9.80204514,74.2516129 8.87617459,74.4451613 C4.60652413,75.3354839 1.13854208,78.8032258 0.248157855,83.0725806 C-0.461568703,86.4774194 0.367520958,89.9516129 2.52412189,92.6032258 C4.6791098,95.2532258 7.87287932,96.7741935 11.2876319,96.7741935 L38.46532,96.7741935 C41.1058254,98.7887097 44.3915368,100 47.9627518,100 L52.0388405,100 C55.6100555,100 58.8941538,98.7887097 61.5362722,96.7741935 L88.7123474,96.7741935 C92.1270999,96.7741935 95.3208694,95.2532258 97.4774704,92.6032258 C99.6324583,89.9516129 100.461548,86.4774194 99.7518214,83.0725806 Z M58.4263795,66.0741935 L60.5200728,62.9354839 C61.0233335,62.1774194 61.291094,61.2967742 61.291094,60.3887097 C61.291094,59.5451613 61.0539808,58.7516129 60.649114,58.0645161 L68.3480342,58.0645161 C69.2771308,58.0645161 70.0997684,58.6225806 70.4449535,59.483871 L71.8853759,63.0854839 C67.5173315,63.7822581 63.7331985,66.433871 61.5701455,70.2629032 L58.4263795,66.0741935 Z M38.4298337,70.2645161 C36.2667807,66.4354839 32.4810347,63.7822581 28.1129904,63.0870968 L29.5534127,59.4854839 C29.8985979,58.6225806 30.7228485,58.066129 31.650332,58.066129 L39.3492522,58.066129 C38.9459985,58.7516129 38.7088853,59.5451613 38.7088853,60.3887097 C38.7088853,61.2967742 38.9766457,62.1774194 39.4799064,62.9354839 L41.5735997,66.0741935 L38.4298337,70.2645161 Z M44.410893,64.516129 L42.1639632,61.1451613 C42.0139528,60.9209677 41.9349151,60.6580645 41.9349151,60.3887097 C41.9349151,59.7612903 42.360751,59.2177419 42.9688576,59.066129 L44.2270093,58.7516129 L45.2432087,61.8016129 L48.3030979,60.7806452 L46.8320283,56.3693548 C46.794929,56.25 46.7739598,56.1258065 46.7739598,56.0016129 C46.7739598,55.3596774 47.2949636,54.8387097 47.9369435,54.8387097 L52.0646487,54.8387097 C52.7050156,54.8387097 53.2260194,55.3596774 53.2260194,56.0016129 C53.2260194,56.1274194 53.2050502,56.25 53.1663379,56.3693548 L51.6952683,60.7806452 L54.7551576,61.8016129 L55.7713569,58.7516129 L57.0295086,59.066129 C57.6392282,59.2177419 58.0650641,59.7612903 58.0650641,60.3887097 C58.0650641,60.6580645 57.9860264,60.9209677 57.836016,61.1451613 L55.5890863,64.516129 L44.410893,64.516129 Z M46.3271547,5.19193548 C47.1465662,3.96129032 48.5208549,3.22580645 49.9999896,3.22580645 C51.4791243,3.22580645 52.853413,3.96129032 53.6728246,5.19193548 C55.3261648,7.67096774 56.7778782,10.2516129 58.0634511,12.9032258 L41.9381411,12.9032258 C43.222101,10.2516129 44.6738144,7.67096774 46.3271547,5.19193548 Z M22.5787362,50.9064516 C22.5787362,49.8548387 23.093288,48.866129 23.9562509,48.2645161 L32.2568256,42.4532258 L32.2568256,51.6129032 L35.4828555,51.6129032 L35.4828555,41.0032258 C35.4828555,32.3870968 37.2232985,23.9693548 40.5041709,16.1290323 L59.4941954,16.1290323 C62.7766807,23.9693548 64.5171238,32.3870968 64.5171238,41.0032258 L64.5171238,51.6129032 L67.7431536,51.6129032 L67.7431536,42.4532258 L76.0453413,48.2645161 C76.9066913,48.866129 77.421243,49.8548387 77.421243,50.9064516 L77.421243,62.7854839 C77.421243,62.85 77.3680135,62.9032258 77.3034929,62.9032258 L75.25819,62.8290323 L73.4403222,58.2870968 C72.6015545,56.1919355 70.603029,54.8387097 68.3480342,54.8387097 L56.2762306,54.8387097 C55.7632919,52.9854839 54.0776913,51.6129032 52.0646487,51.6129032 L47.9369435,51.6129032 C45.9222879,51.6129032 44.2383004,52.9854839 43.7253616,54.8387097 L31.6535581,54.8387097 C29.3985632,54.8387097 27.4000378,56.1919355 26.56127,58.2854839 L24.6321042,62.9032258 L22.6964863,62.9032258 C22.6319657,62.9032258 22.5787362,62.85 22.5787362,62.7854839 L22.5787362,50.9064516 Z M5.02590801,90.5677419 C3.48547877,88.6725806 2.89511532,86.1806452 3.40644104,83.7306452 C4.03874288,80.6967742 6.50020363,78.2354839 9.53428467,77.6032258 C11.9812283,77.0903226 14.4749493,77.6806452 16.3718549,79.2225806 C18.2655344,80.7629032 19.3527064,83.0451613 19.3527064,85.483871 L22.5787362,85.483871 C22.5787362,82.0693548 21.0576632,78.8758065 18.4074797,76.7193548 C17.3332117,75.8451613 16.1186115,75.2016129 14.8330386,74.7790323 C16.0298957,69.7645161 20.5205292,66.1290323 25.804766,66.1290323 C30.4421839,66.1290323 34.5198856,68.9451613 36.2393595,73.1870968 L35.7393248,73.8532258 C33.4940081,76.8467742 32.2568256,80.5548387 32.2568256,84.2967742 C32.2568256,87.7580645 33.3956142,90.95 35.3005848,93.5483871 L11.2876319,93.5483871 C8.84875333,93.5483871 6.56633724,92.4612903 5.02590801,90.5677419 L5.02590801,90.5677419 Z M52.0388405,96.7741935 L47.9627518,96.7741935 C41.0816302,96.7741935 35.4828555,91.1758065 35.4828555,84.2967742 C35.4828555,81.2483871 36.4909898,78.2274194 38.3185357,75.7903226 L44.3544374,67.7419355 L55.6455418,67.7419355 L61.6814436,75.7887097 C63.5089895,78.2274194 64.5171238,81.2483871 64.5171238,84.2967742 C64.5171238,91.1758065 58.918349,96.7741935 52.0388405,96.7741935 L52.0388405,96.7741935 Z M94.9740712,90.5677419 C93.433642,92.4612903 91.1512259,93.5483871 88.7123474,93.5483871 L64.6993945,93.5483871 C66.6043651,90.95 67.7431536,87.7580645 67.7431536,84.2967742 C67.7431536,80.5548387 66.5059711,76.8467742 64.2606544,73.8532258 L63.7606198,73.1870968 C65.4800937,68.9451613 69.5577953,66.1290323 74.1952132,66.1290323 C79.47945,66.1290323 83.9700835,69.7645161 85.1669406,74.7790323 C83.8813677,75.2032258 82.6683805,75.8467742 81.5924996,76.7209677 C78.9423161,78.8758065 77.421243,82.0693548 77.421243,85.483871 L80.6472728,85.483871 C80.6472728,83.0451613 81.7344449,80.7629032 83.6281244,79.2225806 C85.5234169,77.6822581 88.0155249,77.0935484 90.4656946,77.6032258 C93.4997756,78.2354839 95.9612363,80.6967742 96.5935382,83.7306452 C97.1048639,86.1806452 96.5145005,88.6725806 94.9740712,90.5677419 L94.9740712,90.5677419 Z" id="Shape"></path>
                <polygon id="Path" points="25.804766 32.2580645 29.0307958 32.2580645 29.0307958 35.483871 25.804766 35.483871"></polygon>
                <polygon id="Path" points="25.804766 0 29.0307958 0 29.0307958 29.0322581 25.804766 29.0322581"></polygon>
                <polygon id="Path" points="16.1266766 25.8064516 19.3527064 25.8064516 19.3527064 29.0322581 16.1266766 29.0322581"></polygon>
                <polygon id="Path" points="16.1266766 6.4516129 19.3527064 6.4516129 19.3527064 22.5806452 16.1266766 22.5806452"></polygon>
                <polygon id="Path" points="70.9691834 32.2580645 74.1952132 32.2580645 74.1952132 35.483871 70.9691834 35.483871"></polygon>
                <polygon id="Path" points="70.9691834 0 74.1952132 0 74.1952132 29.0322581 70.9691834 29.0322581"></polygon>
                <polygon id="Path" points="80.6472728 25.8064516 83.8733026 25.8064516 83.8733026 29.0322581 80.6472728 29.0322581"></polygon>
                <polygon id="Path" points="80.6472728 6.4516129 83.8733026 6.4516129 83.8733026 22.5806452 80.6472728 22.5806452"></polygon>
            </g>
            <g id="euro" transform="translate(42.539796, 76.008065)">
                <path d="M12.6347609,13.1199276 C12.4680265,12.7165081 12.2982044,12.3130885 12.112944,11.9157814 C11.9492973,11.5612612 11.7393355,11.4573501 11.3472009,11.5459802 C10.8500855,11.6590599 10.362233,11.8088141 9.86511755,11.909669 C8.90485102,12.1083226 7.94149682,12.1266598 6.99358099,11.8302076 C5.80482661,11.4604064 5.17185349,10.6077242 4.78280659,9.50748909 L8.00633796,9.50748909 C8.25952721,9.50748909 8.46331368,9.30577931 8.46331368,9.05517022 L8.46331368,8.0496776 C8.46331368,7.79906851 8.25952721,7.59735873 8.00633796,7.59735873 L4.47403922,7.59735873 C4.47403922,7.31618754 4.47095155,7.04724119 4.47403922,6.77829484 L8.00633796,6.77829484 C8.25952721,6.77829484 8.46331368,6.57658508 8.46331368,6.32597597 L8.46331368,5.32048337 C8.46331368,5.06987425 8.25952721,4.8681645 8.00633796,4.8681645 L4.91866424,4.8681645 C4.91866424,4.85593966 4.91866424,4.84371482 4.92483959,4.8376024 C5.29536042,4.00325746 5.83570334,3.3339478 6.7218657,2.98554002 C7.75314872,2.58212048 8.80604545,2.59128911 9.86820522,2.80827992 C10.371496,2.9091348 10.8655238,3.06194522 11.3688146,3.17502494 C11.7362478,3.25754258 11.9492973,3.15057528 12.1067687,2.81133613 C12.2889414,2.42014143 12.4556758,2.02283431 12.6224102,1.622471 C12.7798815,1.24655735 12.6872513,0.980667202 12.3290812,0.77284502 C12.2395386,0.720889474 12.1469084,0.678102554 12.0511905,0.641428052 C10.5629318,0.0668608419 9.02835796,-0.147073757 7.44438135,0.103535345 C6.32973113,0.280795442 5.28918508,0.659765302 4.39067204,1.35046844 C3.25749578,2.21843167 2.52262944,3.36450988 2.09653046,4.71229786 L2.04404001,4.8681645 L0.45697571,4.8681645 C0.203786466,4.8681645 0,5.06987425 0,5.32048337 L0,6.32597597 C0,6.57658508 0.203786466,6.77829484 0.45697571,6.77829484 L1.70748357,6.77829484 C1.70748357,7.05335361 1.70748357,7.31924375 1.70748357,7.59735873 L0.45697571,7.59735873 C0.203786466,7.59735873 0,7.79906851 0,8.0496776 L0,9.05517022 C0,9.30577931 0.203786466,9.50748909 0.45697571,9.50748909 L1.96376049,9.50748909 C2.07800442,9.87423411 2.1737223,10.2470916 2.31884297,10.5985555 C3.08149837,12.4200558 4.35979531,13.7158883 6.28341603,14.3332424 C7.87356798,14.8436292 9.47607065,14.8283482 11.0785733,14.3913104 C11.4954093,14.2782306 11.9091576,14.1315326 12.3043798,13.9512163 C12.6872513,13.7770124 12.7860569,13.4836164 12.6347609,13.1199276 Z" id="Path"></path>
            </g>
        </g>
    </g>
</svg>