<?xml version="1.0" encoding="UTF-8"?>
<svg width="100px" height="100px" viewBox="0 0 100 100" version="1.1" xmlns="http://www.w3.org/2000/svg" xmlns:xlink="http://www.w3.org/1999/xlink">
    <title>Weiterbildung</title>
    <g id="Page-1" stroke="none" stroke-width="1" fill="none" fill-rule="evenodd">
        <g id="Weiterbildung" transform="translate(0.000000, 0.002726)" fill="#2E3D40" fill-rule="nonzero">
            <path d="M99.1467742,33.5788207 L50.7596774,0.245313778 C50.283871,-0.0817712592 49.7177419,-0.0817712592 49.2419355,0.245313778 L0.85483871,33.5788207 C0.327419355,33.9413226 0,34.6475763 0,35.4163303 C0,36.1850843 0.327419355,36.891338 0.853225806,37.2538399 L14.516129,46.6663889 L14.516129,72.9165256 L17.7419355,72.9165256 L17.7419355,48.8893171 L22.5806452,52.2226678 L22.5806452,64.8789837 C19.8048387,65.8102386 17.7419355,69.0435888 17.7419355,72.9165256 C17.7419355,74.8207022 18.2580645,76.5561279 19.0935484,77.9623852 C18.2129032,81.8519888 17.7419355,85.8624264 17.7419355,89.9207808 L17.7419355,95.8333116 C17.7419355,96.6228991 18.0870968,97.3437362 18.633871,97.6979047 L20.416129,98.849994 C21.583871,99.6020813 22.8887097,100 24.1935484,100 C25.4983871,100 26.8032258,99.6020813 27.9709677,98.8479107 L29.7532258,97.6958213 C30.3,97.3437362 30.6451613,96.6228991 30.6451613,95.8333116 L30.6451613,89.9207808 C30.6451613,85.8624264 30.1741935,81.8519888 29.2935484,77.9623852 C30.1290323,76.5561279 30.6451613,74.8207022 30.6451613,72.9165256 C30.6451613,69.0435888 28.5822581,65.8102386 25.8064516,64.8789837 L25.8064516,54.4455961 L49.2403226,70.5894302 C49.4790323,70.751931 49.7387097,70.8331814 50,70.8331814 C50.2612903,70.8331814 50.5209677,70.751931 50.7596774,70.5894302 L82.2580645,48.8893171 L82.2580645,71.8873536 C73.2870968,80.6186491 62.2064516,85.4165907 50.966129,85.4165907 L49.0354839,85.4165907 C43.4983871,85.4165907 38.0241935,84.2811681 32.7629032,82.0415731 L31.7548387,85.9999271 C37.3387097,88.3770228 43.1548387,89.5832791 49.033871,89.5832791 L50.9645161,89.5832791 C63.1806452,89.5832791 75.2177419,84.2478346 84.8612903,74.5602842 C85.2532258,74.1665321 85.483871,73.560279 85.483871,72.9165256 L85.483871,46.6663889 L99.1467742,37.2538399 C99.6725806,36.891338 100,36.1850843 100,35.4163303 C100,34.6475763 99.6725806,33.9413226 99.1467742,33.5788207 Z M27.4193548,94.5458049 L26.5274194,95.1208079 C25.083871,96.0520628 23.3016129,96.0520628 21.8580645,95.1208079 L20.9677419,94.5458049 L20.9677419,89.9207808 C20.9677419,86.7895145 21.2629032,83.687415 21.8451613,80.6582326 C22.5741935,81.0290679 23.3629032,81.2499023 24.1935484,81.2499023 C25.0241935,81.2499023 25.8129032,81.0290679 26.5419355,80.6582326 C27.1241935,83.687415 27.4193548,86.7895145 27.4193548,89.9207808 L27.4193548,94.5458049 Z M27.4193548,72.9165256 C27.4193548,75.2144542 25.9725806,77.083214 24.1935484,77.083214 C22.4145161,77.083214 20.9677419,75.2144542 20.9677419,72.9165256 C20.9677419,70.618597 22.4145161,68.7498372 24.1935484,68.7498372 C25.9725806,68.7498372 27.4193548,70.618597 27.4193548,72.9165256 Z M50,66.3873249 L26.916129,50.4851588 L46.8983871,36.7205038 C47.816129,37.2038396 48.8612903,37.4996745 50,37.4996745 C53.6177419,37.4996745 56.4516129,34.7538268 56.4516129,31.2496419 C56.4516129,27.745457 53.6177419,24.9996094 50,24.9996094 C46.3822581,24.9996094 43.5483871,27.745457 43.5483871,31.2496419 C43.5483871,32.2017302 43.7725806,33.0892348 44.15,33.8913224 L23.4887097,48.1247298 L5.04032258,35.4163303 L50,4.44325231 L94.9596774,35.4163303 L50,66.3873249 Z M46.7741935,31.2496419 C46.7741935,30.3996375 48.0306452,29.1662977 50,29.1662977 C51.9693548,29.1662977 53.2258065,30.3996375 53.2258065,31.2496419 C53.2258065,32.0996464 51.9693548,33.3329861 50,33.3329861 C48.0306452,33.3329861 46.7741935,32.0996464 46.7741935,31.2496419 Z" id="Shape"></path>
        </g>
    </g>
</svg>